<svg width="25" height="24" viewBox="0 0 25 24" fill="none" xmlns="http://www.w3.org/2000/svg">
<path d="M12.918 0C9.66147 0 9.25197 0.015 7.97247 0.072C6.69297 0.132 5.82147 0.333 5.05797 0.63C4.25674 0.930488 3.53118 1.4031 2.93247 2.0145C2.32107 2.61321 1.84846 3.33877 1.54797 4.14C1.25097 4.902 1.04847 5.775 0.989969 7.05C0.932969 8.3325 0.917969 8.7405 0.917969 12.0015C0.917969 15.2595 0.932969 15.6675 0.989969 16.947C1.04997 18.225 1.25097 19.0965 1.54797 19.86C1.85547 20.649 2.26497 21.318 2.93247 21.9855C3.59847 22.653 4.26747 23.064 5.05647 23.37C5.82147 23.667 6.69147 23.8695 7.96947 23.928C9.25047 23.985 9.65847 24 12.918 24C16.1775 24 16.584 23.985 17.865 23.928C19.1415 23.868 20.016 23.667 20.7795 23.37C21.5802 23.0693 22.3052 22.5967 22.9035 21.9855C23.571 21.318 23.9805 20.649 24.288 19.86C24.5835 19.0965 24.786 18.225 24.846 16.947C24.903 15.6675 24.918 15.2595 24.918 12C24.918 8.7405 24.903 8.3325 24.846 7.0515C24.786 5.775 24.5835 4.902 24.288 4.14C23.9875 3.33877 23.5149 2.61321 22.9035 2.0145C22.3048 1.4031 21.5792 0.930488 20.778 0.63C20.013 0.333 19.14 0.1305 17.8635 0.072C16.5825 0.015 16.176 0 12.915 0H12.918ZM11.8425 2.163H12.9195C16.1235 2.163 16.503 2.1735 17.7675 2.232C18.9375 2.2845 19.5735 2.481 19.9965 2.6445C20.556 2.862 20.9565 3.123 21.3765 3.543C21.7965 3.963 22.056 4.362 22.2735 4.923C22.4385 5.3445 22.6335 5.9805 22.686 7.1505C22.7445 8.415 22.7565 8.7945 22.7565 11.997C22.7565 15.1995 22.7445 15.5805 22.686 16.845C22.6335 18.015 22.437 18.6495 22.2735 19.0725C22.0797 19.5929 21.7728 20.0637 21.375 20.451C20.955 20.871 20.556 21.1305 19.995 21.348C19.575 21.513 18.939 21.708 17.7675 21.762C16.503 21.819 16.1235 21.8325 12.9195 21.8325C9.71547 21.8325 9.33447 21.819 8.06997 21.762C6.89997 21.708 6.26547 21.513 5.84247 21.348C5.32172 21.1549 4.85037 20.8485 4.46247 20.451C4.06388 20.0634 3.75646 19.592 3.56247 19.071C3.39897 18.6495 3.20247 18.0135 3.14997 16.8435C3.09297 15.579 3.08097 15.1995 3.08097 11.994C3.08097 8.7885 3.09297 8.412 3.14997 7.1475C3.20397 5.9775 3.39897 5.3415 3.56397 4.9185C3.78147 4.359 4.04247 3.9585 4.46247 3.5385C4.88247 3.1185 5.28147 2.859 5.84247 2.6415C6.26547 2.4765 6.89997 2.2815 8.06997 2.2275C9.17697 2.1765 9.60597 2.1615 11.8425 2.16V2.163ZM19.3245 4.155C19.1354 4.155 18.9481 4.19225 18.7734 4.26461C18.5987 4.33698 18.44 4.44305 18.3062 4.57677C18.1725 4.71048 18.0664 4.86923 17.9941 5.04394C17.9217 5.21864 17.8845 5.4059 17.8845 5.595C17.8845 5.7841 17.9217 5.97135 17.9941 6.14606C18.0664 6.32077 18.1725 6.47952 18.3062 6.61323C18.44 6.74695 18.5987 6.85302 18.7734 6.92539C18.9481 6.99775 19.1354 7.035 19.3245 7.035C19.7064 7.035 20.0727 6.88329 20.3427 6.61323C20.6128 6.34318 20.7645 5.97691 20.7645 5.595C20.7645 5.21309 20.6128 4.84682 20.3427 4.57677C20.0727 4.30671 19.7064 4.155 19.3245 4.155ZM12.9195 5.838C12.1021 5.82525 11.2903 5.97523 10.5314 6.27921C9.77256 6.58319 9.08174 7.03511 8.49919 7.60864C7.91665 8.18216 7.45401 8.86585 7.13823 9.61989C6.82245 10.3739 6.65982 11.1833 6.65982 12.0007C6.65982 12.8182 6.82245 13.6276 7.13823 14.3816C7.45401 15.1356 7.91665 15.8193 8.49919 16.3929C9.08174 16.9664 9.77256 17.4183 10.5314 17.7223C11.2903 18.0263 12.1021 18.1763 12.9195 18.1635C14.5373 18.1383 16.0803 17.4779 17.2154 16.3249C18.3506 15.1719 18.9868 13.6188 18.9868 12.0007C18.9868 10.3827 18.3506 8.82962 17.2154 7.67662C16.0803 6.52363 14.5373 5.86324 12.9195 5.838ZM12.9195 7.9995C13.4448 7.9995 13.965 8.10298 14.4504 8.30402C14.9358 8.50506 15.3768 8.79974 15.7483 9.17122C16.1197 9.5427 16.4144 9.98371 16.6154 10.4691C16.8165 10.9544 16.92 11.4746 16.92 12C16.92 12.5254 16.8165 13.0456 16.6154 13.5309C16.4144 14.0163 16.1197 14.4573 15.7483 14.8288C15.3768 15.2003 14.9358 15.4949 14.4504 15.696C13.965 15.897 13.4448 16.0005 12.9195 16.0005C11.8585 16.0005 10.8409 15.579 10.0907 14.8288C9.34045 14.0785 8.91897 13.061 8.91897 12C8.91897 10.939 9.34045 9.92146 10.0907 9.17122C10.8409 8.42098 11.8585 7.9995 12.9195 7.9995Z" fill="white"/>
</svg>
