<svg width="24" height="24" viewBox="0 0 24 24" fill="none" xmlns="http://www.w3.org/2000/svg">
<path d="M14.5394 5.01144C12.3883 5.90651 8.09161 7.75742 1.64934 10.5642C0.605097 10.9786 0.0571911 11.3856 0.00562343 11.7852C-0.0772531 12.4565 0.765326 12.7217 1.91178 13.0836L2.39523 13.2356C3.52235 13.603 5.04175 14.0312 5.82908 14.0477C6.54734 14.0662 7.34664 13.7715 8.22698 13.1637C14.2475 9.10094 17.3544 7.04744 17.5478 7.00324C17.686 6.97009 17.8793 6.93141 18.0064 7.04744C18.1335 7.16347 18.1224 7.37895 18.1086 7.43696C18.0257 7.79333 14.719 10.8653 13.009 12.4565C12.4758 12.9538 12.0973 13.3046 12.02 13.3847C11.8497 13.5589 11.6765 13.7302 11.5006 13.8986C10.4508 14.9097 9.66627 15.6666 11.542 16.9042C12.4454 17.5009 13.1692 17.9899 13.8902 18.4816C14.6748 19.0176 15.4593 19.5507 16.476 20.2193C16.7338 20.3887 16.9824 20.5609 17.2218 20.7359C18.1362 21.3878 18.9622 21.9735 19.9761 21.8796C20.5673 21.8243 21.1778 21.2718 21.4872 19.6143C22.2193 15.6998 23.6586 7.22148 23.9901 3.72685C24.0109 3.43636 23.9989 3.14444 23.9542 2.85665C23.9274 2.62462 23.8151 2.41089 23.6392 2.25718C23.3876 2.08434 23.0881 1.99451 22.7829 2.00026C21.9541 2.01407 20.675 2.45884 14.5394 5.01144Z" fill="white"/>
</svg>
