<svg width="25" height="24" viewBox="0 0 25 24" fill="none" xmlns="http://www.w3.org/2000/svg">
<path d="M12.1546 3.99854H12.2881C13.5211 4.00304 19.7686 4.04804 21.4531 4.50104C21.9624 4.63929 22.4264 4.90877 22.7989 5.28255C23.1713 5.65633 23.4392 6.12131 23.5756 6.63103C23.7271 7.20103 23.8336 7.95553 23.9056 8.73403L23.9206 8.89004L23.9536 9.28003L23.9656 9.43603C24.0631 10.807 24.0751 12.091 24.0766 12.3715V12.484C24.0751 12.775 24.0616 14.146 23.9536 15.574L23.9416 15.7315L23.9281 15.8875C23.8531 16.7455 23.7421 17.5975 23.5756 18.2245C23.4392 18.7343 23.1713 19.1992 22.7989 19.573C22.4264 19.9468 21.9624 20.2163 21.4531 20.3545C19.7131 20.8225 13.0996 20.8555 12.1831 20.857H11.9701C11.5066 20.857 9.58962 20.848 7.57962 20.779L7.32462 20.77L7.19412 20.764L6.93762 20.7535L6.68112 20.743C5.01612 20.6695 3.43063 20.551 2.70013 20.353C2.19107 20.2149 1.72715 19.9457 1.3547 19.5722C0.982254 19.1987 0.71431 18.734 0.577625 18.2245C0.411125 17.599 0.300125 16.7455 0.225125 15.8875L0.213125 15.73L0.201125 15.574C0.12667 14.5577 0.085648 13.5391 0.078125 12.52L0.078125 12.3355C0.081125 12.013 0.093125 10.8985 0.174125 9.66853L0.184625 9.51403L0.189125 9.43603L0.201125 9.28003L0.234125 8.89004L0.249125 8.73403C0.321125 7.95553 0.427625 7.19953 0.579125 6.63103C0.715581 6.12131 0.983423 5.65633 1.35589 5.28255C1.72835 4.90877 2.19239 4.63929 2.70162 4.50104C3.43212 4.30604 5.01762 4.18604 6.68262 4.11104L6.93762 4.10054L7.19562 4.09154L7.32462 4.08704L7.58112 4.07654C9.00869 4.03064 10.4368 4.00514 11.8651 4.00004L12.1546 3.99854ZM9.67813 8.81353V16.0405L15.9136 12.4285L9.67813 8.81353Z" fill="white"/>
</svg>
