<svg width="24" height="24" viewBox="0 0 24 24" fill="none" xmlns="http://www.w3.org/2000/svg">
<path fill-rule="evenodd" clip-rule="evenodd" d="M4.4802 19.8064C4.22237 19.5485 4.07752 19.1988 4.07752 18.8342C4.07752 18.4696 4.22237 18.1199 4.4802 17.862L15.7437 6.59856L7.39669 6.60051C7.0316 6.60051 6.68146 6.45547 6.4233 6.19731C6.16514 5.93916 6.02011 5.58902 6.02011 5.22392C6.02011 4.85883 6.16514 4.50869 6.4233 4.25053C6.68146 3.99237 7.0316 3.84734 7.39669 3.84734L19.0626 3.84734C19.2435 3.84711 19.4226 3.88256 19.5897 3.95166C19.7568 4.02076 19.9087 4.12215 20.0365 4.25002C20.1644 4.3779 20.2658 4.52974 20.3349 4.69686C20.404 4.86398 20.4395 5.04308 20.4392 5.22392V16.8899C20.4392 17.255 20.2942 17.6051 20.036 17.8633C19.7779 18.1214 19.4277 18.2665 19.0626 18.2665C18.6976 18.2665 18.3474 18.1214 18.0893 17.8633C17.8311 17.6051 17.6861 17.255 17.6861 16.8899L17.688 8.54289L6.42453 19.8064C6.16669 20.0642 5.817 20.2091 5.45236 20.2091C5.08773 20.2091 4.73803 20.0642 4.4802 19.8064Z" fill="white"/>
</svg>
