<svg width="28" height="28" viewBox="0 0 28 28" fill="currentColor" xmlns="http://www.w3.org/2000/svg">
<path fill-rule="evenodd" clip-rule="evenodd" d="M11.0991 23.3623C10.5428 23.3623 10.0901 23.8139 10.0901 24.3713C10.0901 24.9287 10.5428 25.3802 11.0991 25.3802C11.6565 25.3802 12.108 24.9287 12.108 24.3713C12.108 23.8139 11.6565 23.3623 11.0991 23.3623ZM8.07227 24.3713C8.07227 22.7002 9.42797 21.3445 11.0991 21.3445C12.7713 21.3445 14.1258 22.7002 14.1258 24.3713C14.1258 26.0423 12.7713 27.398 11.0991 27.398C9.42797 27.398 8.07227 26.0423 8.07227 24.3713Z" fill="currentColor"/>
<path fill-rule="evenodd" clip-rule="evenodd" d="M20.515 23.3623C19.9576 23.3623 19.5061 23.8139 19.5061 24.3713C19.5061 24.9287 19.9576 25.3802 20.515 25.3802C21.0724 25.3802 21.5239 24.9287 21.5239 24.3713C21.5239 23.8139 21.0724 23.3623 20.515 23.3623ZM17.4883 24.3713C17.4883 22.7002 18.844 21.3445 20.515 21.3445C22.1861 21.3445 23.5418 22.7002 23.5418 24.3713C23.5418 26.0423 22.1861 27.398 20.515 27.398C18.844 27.398 17.4883 26.0423 17.4883 24.3713Z" fill="currentColor"/>
<path fill-rule="evenodd" clip-rule="evenodd" d="M0 2.17542C0 1.61798 0.452737 1.1665 1.00892 1.1665H2.62949C3.72542 1.1665 4.67763 1.9232 4.92354 2.99137L5.4343 5.20219H24.2974C26.7756 5.20219 28.5539 7.59079 27.8415 9.96428L25.42 18.0357C24.9509 19.6007 23.5106 20.6728 21.876 20.6728H9.87619C8.15342 20.6728 6.65895 19.4835 6.27178 17.8049L2.95735 3.44527C2.92204 3.29268 2.78583 3.18421 2.62946 3.18421H1.00889C0.452707 3.18421 0 2.73287 0 2.17542ZM5.89953 7.22003L8.23771 17.3509C8.41301 18.1139 9.09272 18.6549 9.87599 18.6549H21.8758C22.6186 18.6549 23.2732 18.1669 23.4864 17.4556L25.9078 9.38424C26.2318 8.30597 25.4247 7.22009 24.2972 7.22009L5.89953 7.22003Z" fill="currentColor"/>
<path d="M15.7529 9.36792V16.1943" stroke="currentColor" stroke-width="1.46279" stroke-linecap="round"/>
<path d="M19.1662 12.7812H12.3398" stroke="currentColor" stroke-width="1.46279" stroke-linecap="round"/>
</svg>
