<svg width="23" height="20" viewBox="0 0 23 20" fill="none" xmlns="http://www.w3.org/2000/svg">
<path fill-rule="evenodd" clip-rule="evenodd" d="M22.7417 10.0283C22.7417 9.66362 22.5968 9.31392 22.339 9.05609C22.0812 8.79825 21.7315 8.6534 21.3669 8.6534L5.43788 8.6534L11.3415 2.75256C11.5996 2.4944 11.7447 2.14426 11.7447 1.77917C11.7447 1.41408 11.5996 1.06394 11.3415 0.80578C11.0833 0.547621 10.7332 0.402588 10.3681 0.402588C10.003 0.402588 9.65285 0.547621 9.39469 0.80578L1.14561 9.05486C1.01758 9.18257 0.915997 9.33429 0.846685 9.50132C0.777376 9.66835 0.741699 9.84741 0.741699 10.0283C0.741699 10.2091 0.777376 10.3882 0.846685 10.5552C0.915997 10.7222 1.01758 10.8739 1.14561 11.0016L9.39469 19.2507C9.65285 19.5089 10.003 19.6539 10.3681 19.6539C10.7332 19.6539 11.0833 19.5089 11.3415 19.2507C11.5996 18.9926 11.7447 18.6424 11.7447 18.2773C11.7447 17.9122 11.5996 17.5621 11.3415 17.3039L5.43788 11.4031L21.3669 11.4031C21.7315 11.4031 22.0812 11.2582 22.339 11.0004C22.5968 10.7426 22.7417 10.3929 22.7417 10.0283Z" fill="url(#paint0_linear_4084_1210)"/>
<defs>
<linearGradient id="paint0_linear_4084_1210" x1="0.741699" y1="9.89639" x2="22.7417" y2="9.89639" gradientUnits="userSpaceOnUse">
<stop stop-color="#5BD0F1"/>
<stop offset="0.495192" stop-color="#2DADD0"/>
<stop offset="1" stop-color="#1B6AB3"/>
</linearGradient>
</defs>
</svg>
