<svg width="174" height="52" viewBox="0 0 174 52" fill="none" xmlns="http://www.w3.org/2000/svg">
<path d="M90.7366 8.84999H95.2121V17.2216C95.2121 21.2775 93.294 23.0957 89.6177 23.0957C86.2611 23.0957 84.0633 20.9378 83.9834 18.2006L88.1991 17.4014C88.2391 18.0008 88.5987 18.7201 89.4978 18.7201C90.4968 18.7201 90.7366 17.9808 90.7366 17.2216V8.84999ZM101.71 19.0797H107.064V22.8359H97.2138V8.84999H106.884V12.6062H101.71V14.1646H106.245V17.4014H101.71V19.0797ZM119.097 8.84999V12.9658H115.82V22.8359H111.325V12.9658H108.068V8.84999H119.097ZM126.37 14.0847C129.787 15.0238 131.125 16.0228 131.125 18.3804C131.125 20.8979 129.287 23.0957 125.491 23.0957C122.854 23.0957 120.077 22.1566 119.497 19.3594L123.213 18.2006C123.293 18.9199 124.212 19.4593 125.271 19.4593C126.051 19.4593 126.63 19.1596 126.63 18.6202C126.63 17.9209 125.771 17.8809 124.372 17.5412C121.815 16.9219 119.937 16.0228 119.937 13.1457C119.937 10.4084 122.354 8.61023 125.431 8.61023C127.889 8.61023 130.127 9.829 130.626 12.2865L126.93 13.1856C126.77 12.6262 126.23 12.2466 125.471 12.2466C124.672 12.2466 124.252 12.5662 124.252 13.0458C124.252 13.7251 125.291 13.785 126.37 14.0847ZM140.567 8.84999H145.063V17.1816C145.063 21.3374 142.485 23.0957 138.689 23.0957C134.873 23.0957 132.316 21.3374 132.316 17.1816V8.84999H136.791V16.7021C136.791 18.0008 137.47 18.7201 138.689 18.7201C139.888 18.7201 140.567 18.0008 140.567 16.7021V8.84999ZM154.998 22.8359L152.821 18.5203H151.562V22.8359H147.066V8.84999H152.98C156.837 8.84999 158.895 10.6282 158.895 13.8649C158.895 15.6432 158.155 16.8819 156.917 17.6212L159.874 22.8359H154.998ZM151.562 12.786V14.9239H152.98C153.9 14.9239 154.359 14.6042 154.359 13.8649C154.359 13.1257 153.9 12.786 152.98 12.786H151.562ZM170.651 12.786H165.356V14.7241H170.071V18.3404H165.356V22.8359H160.881V8.84999H170.651V12.786Z" fill="#18202D"/>
<path d="M102.581 29.18H107.056V43.166H102.581V38.1311H98.5648V43.166H94.0693V29.18H98.5648V34.0751H102.581V29.18ZM115.927 28.9403C120.123 28.9403 123.3 32.0572 123.3 36.173C123.3 40.3089 120.123 43.4258 115.927 43.4258C111.732 43.4258 108.555 40.3089 108.555 36.173C108.555 32.0572 111.732 28.9403 115.927 28.9403ZM115.927 39.0501C117.586 39.0501 118.804 37.8713 118.804 36.173C118.804 34.4947 117.586 33.2959 115.927 33.2959C114.269 33.2959 113.05 34.4947 113.05 36.173C113.05 37.8713 114.269 39.0501 115.927 39.0501ZM133.052 29.18H137.547V37.5117C137.547 41.6675 134.97 43.4258 131.174 43.4258C127.358 43.4258 124.8 41.6675 124.8 37.5117V29.18H129.276V37.0322C129.276 38.3309 129.955 39.0501 131.174 39.0501C132.373 39.0501 133.052 38.3309 133.052 37.0322V29.18ZM145.625 34.4148C149.042 35.3539 150.38 36.3528 150.38 38.7105C150.38 41.228 148.542 43.4258 144.746 43.4258C142.108 43.4258 139.331 42.4867 138.752 39.6895L142.468 38.5307C142.548 39.2499 143.467 39.7894 144.526 39.7894C145.305 39.7894 145.885 39.4897 145.885 38.9502C145.885 38.2509 145.026 38.211 143.627 37.8713C141.07 37.2519 139.191 36.3528 139.191 33.4757C139.191 30.7385 141.609 28.9403 144.686 28.9403C147.143 28.9403 149.381 30.1591 149.881 32.6166L146.184 33.5157C146.025 32.9563 145.485 32.5766 144.726 32.5766C143.927 32.5766 143.507 32.8963 143.507 33.3758C143.507 34.0552 144.546 34.1151 145.625 34.4148ZM156.066 39.4098H161.42V43.166H151.57V29.18H161.241V32.9363H156.066V34.4947H160.601V37.7315H156.066V39.4098Z" fill="#18202D"/>
<mask id="mask0_2095_2512" style="mask-type:alpha" maskUnits="userSpaceOnUse" x="11" y="1" width="61" height="50">
<path fill-rule="evenodd" clip-rule="evenodd" d="M19.7784 50.894C25.6461 50.1571 31.4082 50.2777 37.2121 50.3992C46.6501 50.5968 56.1985 50.7966 66.4903 47.315C69.6566 42.5841 71.5031 36.8952 71.5031 30.775C71.5031 14.3307 58.1724 1 41.7281 1C25.2838 1 11.9531 14.3307 11.9531 30.775C11.9531 38.5315 14.9189 45.5952 19.7784 50.894Z" fill="#F4F9F2"/>
<mask id="mask1_2095_2512" style="mask-type:alpha" maskUnits="userSpaceOnUse" x="11" y="1" width="61" height="50">
<path fill-rule="evenodd" clip-rule="evenodd" d="M19.7784 50.894C25.6461 50.1571 31.4082 50.2777 37.2121 50.3992C46.6501 50.5968 56.1985 50.7966 66.4903 47.315C69.6566 42.5841 71.5031 36.8952 71.5031 30.775C71.5031 14.3307 58.1724 1 41.7281 1C25.2838 1 11.9531 14.3307 11.9531 30.775C11.9531 38.5315 14.9189 45.5952 19.7784 50.894Z" fill="white"/>
</mask>
<g mask="url(#mask1_2095_2512)">
<path d="M19.7785 50.894L15.7538 54.5851L17.6603 56.6639L20.459 56.3124L19.7785 50.894ZM66.4904 47.315L68.2403 52.488L69.9971 51.8937L71.0287 50.3524L66.4904 47.315ZM37.3265 44.9395C31.5831 44.8193 25.4253 44.681 19.0981 45.4757L20.459 56.3124C25.8671 55.6332 31.2336 55.7362 37.0979 55.859L37.3265 44.9395ZM64.7404 42.1421C55.4748 45.2765 46.8404 45.1386 37.3265 44.9395L37.0979 55.859C46.46 56.0549 56.9224 56.3167 68.2403 52.488L64.7404 42.1421ZM71.0287 50.3524C74.7778 44.7508 76.9642 38.0099 76.9642 30.775H66.0423C66.0423 35.7805 64.5356 40.4174 61.9521 44.2776L71.0287 50.3524ZM76.9642 30.775C76.9642 11.3147 61.1885 -4.46094 41.7282 -4.46094V6.46095C55.1565 6.46095 66.0423 17.3467 66.0423 30.775H76.9642ZM41.7282 -4.46094C22.2679 -4.46094 6.49219 11.3147 6.49219 30.775H17.4141C17.4141 17.3467 28.2999 6.46095 41.7282 6.46095V-4.46094ZM6.49219 30.775C6.49219 39.951 10.0069 48.3186 15.7538 54.5851L23.8032 47.203C19.8312 42.8718 17.4141 37.1119 17.4141 30.775H6.49219Z" fill="#2DADD0"/>
</g>
</mask>
<g mask="url(#mask0_2095_2512)">
<path d="M41.7281 60.55C58.1724 60.55 71.5031 47.2193 71.5031 30.775C71.5031 14.3307 58.1724 1 41.7281 1C25.2838 1 11.9531 14.3307 11.9531 30.775C11.9531 47.2193 25.2838 60.55 41.7281 60.55Z" fill="white"/>
<path d="M55.6512 18.3298C59.3257 18.3298 62.3044 15.3511 62.3044 11.6766C62.3044 8.00217 59.3257 5.02344 55.6512 5.02344C51.9768 5.02344 48.998 8.00217 48.998 11.6766C48.998 15.3511 51.9768 18.3298 55.6512 18.3298Z" fill="#E8252E"/>
<path d="M72.1627 43.7949H-13.1787" stroke="#E4003A" stroke-width="5.46094" stroke-linecap="round"/>
<path d="M72.1627 38.8672L-13.1787 38.8671" stroke="#E8252E" stroke-width="5.46094" stroke-linecap="round"/>
<path d="M72.1627 33.9375H-13.1787" stroke="#EB5B00" stroke-width="5.46094" stroke-linecap="round"/>
<path d="M72.1627 29.0097L-13.1787 29.0096" stroke="#FFB200" stroke-width="5.46094" stroke-linecap="round"/>
<path d="M35.322 20.3017C21.5639 11.6362 18.3712 29.6474 27.3102 35.2874C34.7561 39.9849 33.7808 42.311 48.1355 43.095C35.3824 33.8507 35.322 33.8956 32.8168 24.9836L35.322 20.3017Z" fill="#1B6AB3"/>
<path d="M67.9715 45.7228C57.7629 46.4818 17.087 38.1885 25.424 22.3545C27.0528 19.2612 31.768 17.9602 33.5387 21.059C33.0061 20.8083 32.4022 20.6867 31.768 20.7338C29.8228 20.8784 28.3596 22.5767 28.5042 24.5219C28.6488 26.467 30.3471 27.9302 32.2923 27.7856C32.5384 27.7673 32.7733 27.7261 33.0016 27.6615C38.1571 26.9784 38.879 20.6858 36.1756 16.5847C33.9599 13.2183 27.9689 11.2711 22.3509 14.5341C-6.52769 31.3076 34.6646 68.0233 67.9715 45.7228Z" fill="#2DADD0"/>
<path fill-rule="evenodd" clip-rule="evenodd" d="M9.11019 46.6239C2.53054 48.2303 1.76767 45.5879 -2.89211 42.3945C-12.7275 35.6635 -16.4959 49.0068 -29.8984 45.2973C-14.3043 60.8068 -10.2708 50.1274 -2.79878 47.8963C1.64595 46.5682 3.01798 48.719 6.20941 51.0638C20.4644 61.5189 22.9492 45.4344 33.7752 49.1928C22.0794 35.1163 18.1503 44.4054 9.11019 46.6239Z" fill="#1656A1"/>
<path d="M29.2354 44.2591L63.5852 27.2253C63.877 27.0807 64.2298 27.1996 64.3742 27.493C64.3981 27.5416 64.4147 27.5919 64.4246 27.6427C64.6554 28.6373 64.5137 29.6796 64.0636 30.7422C62.8508 33.6052 59.3152 36.6716 54.8647 39.3024C50.467 41.902 45.1541 44.0973 40.3194 45.2519C35.9176 46.3031 31.8812 46.4936 29.2242 45.3537C28.9246 45.2252 28.7849 44.8774 28.9124 44.5765C28.9762 44.4257 29.0951 44.3155 29.2354 44.2591ZM63.3539 28.6578L31.0299 44.687C33.3922 45.206 36.5847 44.9263 40.0497 44.0988C44.7762 42.97 49.9705 40.8237 54.2703 38.2819C58.5173 35.7714 61.8696 32.8964 62.9793 30.2768C63.2155 29.7193 63.3452 29.1771 63.3539 28.6578Z" fill="#18202D"/>
<path d="M63.3543 28.6578L31.0303 44.687C33.3926 45.206 36.5851 44.9263 40.0501 44.0988C44.7766 42.97 49.9709 40.8237 54.2707 38.2819C58.5177 35.7714 61.87 32.8964 62.9797 30.2768C63.2159 29.7193 63.3456 29.1771 63.3543 28.6578Z" fill="#18202D"/>
<path d="M40.0936 49.0945L35.9495 45.8424C35.6928 45.6409 35.6457 45.2696 35.8458 45.0119C35.9573 44.8683 36.1216 44.7907 36.2897 44.7848C36.9703 44.7037 37.674 44.5929 38.3952 44.4549C39.1462 44.3112 39.9182 44.1371 40.7048 43.9355C41.0201 43.8547 41.3409 44.0447 41.4218 44.3617C41.4437 44.4476 41.4457 44.5338 41.4307 44.6156L41.0732 48.7061C41.0448 49.0319 40.7611 49.2743 40.4368 49.2452C40.304 49.2333 40.1854 49.178 40.0936 49.0945ZM37.7629 45.7673L39.9981 47.5214L40.1942 45.2779C39.6629 45.403 39.1358 45.5158 38.6148 45.6155C38.3287 45.6702 38.0447 45.7209 37.7629 45.7673Z" fill="#18202D"/>
<path d="M37.7637 45.7672L39.9989 47.5213L40.195 45.2778C39.6637 45.4029 39.1366 45.5157 38.6156 45.6154C38.3295 45.6701 38.0455 45.7208 37.7637 45.7672Z" fill="#18202D"/>
<path d="M38.8924 31.8469C38.8924 31.8469 37.3638 33.5309 36.5845 34.9059C36.1154 35.7316 35.531 37.2243 35.0414 38.4752C34.7156 39.3075 34.4317 40.0328 34.2515 40.3834C33.8004 41.2589 36.9886 41.7009 37.6711 40.9058C38.1317 40.3698 37.4265 39.9751 36.859 39.6574C36.5842 39.5036 36.3417 39.3679 36.2796 39.243C36.0884 38.86 39.2264 34.2432 40.544 33.0508C41.8625 31.8586 41.5055 30.4924 40.8962 28.9017C41.7842 29.2646 42.9149 29.3724 44.1566 29.4908C45.2319 29.5933 46.3906 29.7038 47.5471 29.9947C46.5307 30.7418 46.1059 32.3931 45.7805 33.6584C45.6685 34.0936 45.5683 34.4832 45.4598 34.7745C45.0368 35.9132 44.6531 37.7071 44.6531 37.7071L46.3635 36.9812C46.3635 36.9812 47.1592 34.3489 48.1381 32.9974C49.1177 31.6455 50.1615 28.9627 49.8954 28.4226C49.7378 28.1011 48.9669 27.2944 47.2189 26.5925C45.4711 25.8909 41.9869 24.9893 41.9869 24.9893C41.9869 24.9893 41.837 24.8911 41.5915 24.3849C41.7607 24.1286 41.8778 23.5553 42.1028 22.4529C42.2061 21.9468 42.3322 21.3293 42.4965 20.5797C42.7818 19.2797 43.116 18.5022 43.4232 18.0678C44.8313 19.2899 46.9675 20.7849 48.0652 21.1636C48.2314 21.2208 48.3958 21.2766 48.5573 21.3315C49.5272 21.661 50.3959 21.956 50.9545 22.305C51.1497 22.4764 51.4062 22.6515 51.5979 22.7825C51.716 22.8631 51.8096 22.927 51.849 22.9629C51.9896 23.0904 52.7152 23.6241 52.8405 23.4932C52.9102 23.4204 52.7858 23.289 52.6678 23.1644C52.5733 23.0646 52.4829 22.9691 52.4994 22.9114C52.5363 22.7816 53.0889 22.8671 53.5054 22.944C53.9226 23.021 54.5036 23.1127 54.3664 23.0155C54.5624 23.066 54.8782 23.0136 54.7171 22.8428C54.5562 22.6714 53.3939 22.2524 53.2092 22.1947C53.0988 22.1598 52.8285 22.0498 52.5782 21.948C52.4095 21.8793 52.2498 21.8143 52.1543 21.7785C52.0445 21.7376 51.7612 21.6219 51.4656 21.487L51.4661 21.4853C51.3818 21.4398 51.2977 21.3954 51.2161 21.3532C50.5782 21.0231 50.02 20.5809 49.498 20.1673C49.2045 19.9348 48.9224 19.7113 48.6441 19.522C48.4288 19.3756 48.1442 19.1725 47.8368 18.9533C47.2131 18.5083 46.4955 17.9965 46.0735 17.755C45.6305 17.5016 44.824 16.1537 44.6849 15.8662C44.5458 15.5787 44.4385 15.4331 43.8763 15.2376C43.3142 15.0421 40.9233 15.2618 40.9233 15.2618L37.7286 16.3041C37.7286 16.3041 37.0892 17.2281 36.2375 18.2137C35.5872 18.9593 35.1773 19.904 35.1773 19.904C35.1773 19.904 33.1304 22.9359 33.0132 23.5887C32.8969 24.242 32.5594 27.0259 32.6788 28.0356C32.7634 28.7463 32.4451 29.6589 32.2105 30.3314C32.1119 30.6144 32.028 30.8549 31.9952 31.02C31.8836 31.5772 32.2606 32.0686 32.3127 31.7308C32.5196 32.1969 32.7546 32.1226 32.7307 31.9205C32.9149 32.4003 33.2304 32.6806 33.3608 32.6362C33.4889 32.5929 33.5937 31.3302 33.5937 31.3302C33.5937 31.3302 33.8354 32.1765 33.9407 31.9313C34.0454 31.6861 33.9439 30.3877 33.7923 29.4282C33.714 28.9377 33.9317 28.011 34.1756 26.9723C34.4091 25.9777 34.6668 24.8804 34.712 23.9649C35.3228 23.3654 36.6844 21.5 36.6844 21.5L37.1951 23.2397C37.1951 23.2397 36.0504 26.3361 36.5241 27.851C36.9969 29.3656 38.8924 31.8469 38.8924 31.8469Z" fill="#18202D"/>
<path d="M39.8662 12.2506C40.6687 12.882 41.016 15.5049 41.016 15.5049L37.7954 16.464C37.7954 16.464 37.7809 15.9559 37.5542 15.8138C36.041 14.3566 37.1093 14.2965 37.1093 14.2965C37.1093 14.2965 36.774 13.4669 36.8235 13.0878C37.0818 11.6469 39.0635 11.6196 39.8662 12.2506Z" fill="#18202D"/>
<path d="M3.49219 45.0485C7.237 46.1201 11.3792 45.4037 15.7441 43.6758C12.1678 46.0358 6.55066 48.1972 3.49219 45.0485Z" fill="#2286BE"/>
<path d="M9.16309 51.7825C29.0055 48.3546 52.0098 63.0955 67.1337 45.345C46.0686 54.0383 29.1614 43.4697 9.16309 51.7825Z" fill="#2DADD0"/>
<path d="M41.7282 59.1848C57.4185 59.1848 70.138 46.4653 70.138 30.775C70.138 15.0847 57.4185 2.36523 41.7282 2.36523C26.0379 2.36523 13.3184 15.0847 13.3184 30.775C13.3184 46.4653 26.0379 59.1848 41.7282 59.1848Z" stroke="#2DADD0" stroke-width="2.73047"/>
<path d="M20.7834 42.1611C25.7178 46.5111 31.7898 52.0062 59.3471 47.5297C42.632 44.5727 37.8373 42.9166 32.8707 39.0043C26.8299 34.2458 18.6995 28.4956 23.3302 18.9199C11.6719 26.5081 12.745 35.0879 20.7834 42.1611Z" fill="#2598C9"/>
</g>
<path d="M4.26926 44.5679C0.23897 44.0339 3.1077 38.3559 5.22107 35.1499C6.9532 32.5182 12.1365 30.9542 16.2853 33.5469C23.751 38.2128 24.4999 44.3934 34.747 48.9276C30.0388 50.7819 12.6928 56.1147 7.87727 39.4315L4.26926 44.5679Z" fill="#1B6AB3"/>
<path d="M10.4162 37.8072C8.39183 36.017 4.27227 36.8935 4.13754 39.1349C4.63958 38.8275 5.2266 38.6406 5.86215 38.6183C7.81147 38.5496 9.45141 40.0779 9.52008 42.0272C9.58879 43.9766 8.06044 45.6165 6.11111 45.6852C5.86448 45.6939 5.62651 45.6785 5.39243 45.6393C0.193179 45.5232 -1.2116 39.3471 1.02777 34.9753C2.8626 31.3871 9.23486 28.6742 14.8724 31.3914C25.0171 36.2814 27.1192 45.815 40.7822 50.1489C13.554 50.1489 19.693 46.0112 10.4162 37.8072Z" fill="#2DADD0"/>
</svg>
