<svg width="160" height="113" viewBox="0 0 160 113" fill="none" xmlns="http://www.w3.org/2000/svg">
<mask id="mask0_4037_2951" style="mask-type:alpha" maskUnits="userSpaceOnUse" x="26" y="0" width="134" height="112">
<path fill-rule="evenodd" clip-rule="evenodd" d="M44.2575 111.646C57.3874 109.997 70.281 110.267 83.2682 110.539C104.387 110.981 125.753 111.428 148.783 103.637C155.868 93.0513 160 80.3214 160 66.6265C160 29.8297 130.17 0 93.3735 0C56.5767 0 26.7471 29.8297 26.7471 66.6265C26.7471 83.9829 33.3835 99.7891 44.2575 111.646Z" fill="#F4F9F2"/>
<mask id="mask1_4037_2951" style="mask-type:alpha" maskUnits="userSpaceOnUse" x="26" y="0" width="134" height="112">
<path fill-rule="evenodd" clip-rule="evenodd" d="M44.2575 111.646C57.3874 109.997 70.281 110.267 83.2682 110.539C104.387 110.981 125.753 111.428 148.783 103.637C155.868 93.0513 160 80.3214 160 66.6265C160 29.8297 130.17 0 93.3735 0C56.5767 0 26.7471 29.8297 26.7471 66.6265C26.7471 83.9829 33.3835 99.7891 44.2575 111.646Z" fill="white"/>
</mask>
<g mask="url(#mask1_4037_2951)">
<path d="M44.2576 111.646L35.2516 119.906L39.5178 124.557L45.7803 123.771L44.2576 111.646ZM148.783 103.637L152.699 115.213L156.63 113.883L158.938 110.434L148.783 103.637ZM83.5241 98.3219C70.6723 98.0529 56.8932 97.7435 42.7351 99.5218L45.7803 123.771C57.8818 122.251 69.8902 122.481 83.0126 122.756L83.5241 98.3219ZM144.867 92.0623C124.134 99.076 104.813 98.7674 83.5241 98.3219L83.0126 122.756C103.962 123.194 127.373 123.78 152.699 115.213L144.867 92.0623ZM158.938 110.434C167.328 97.8997 172.22 82.8158 172.22 66.6265H147.78C147.78 77.8271 144.409 88.203 138.628 96.8408L158.938 110.434ZM172.22 66.6265C172.22 23.0809 136.919 -12.2197 93.3736 -12.2197V12.2198C123.422 12.2198 147.78 36.5785 147.78 66.6265H172.22ZM93.3736 -12.2197C49.828 -12.2197 14.5273 23.0809 14.5273 66.6265H38.9668C38.9668 36.5785 63.3256 12.2198 93.3736 12.2198V-12.2197ZM14.5273 66.6265C14.5273 87.1593 22.392 105.883 35.2516 119.906L53.2635 103.387C44.3755 93.6951 38.9668 80.8064 38.9668 66.6265H14.5273Z" fill="#2DADD0"/>
</g>
</mask>
<g mask="url(#mask0_4037_2951)">
<path d="M93.3735 133.253C130.17 133.253 160 103.423 160 66.6264C160 29.8297 130.17 0 93.3735 0C56.5768 0 26.7471 29.8297 26.7471 66.6264C26.7471 103.423 56.5768 133.253 93.3735 133.253Z" fill="white"/>
<path d="M124.529 38.7781C132.751 38.7781 139.417 32.1127 139.417 23.8905C139.417 15.6683 132.751 9.00293 124.529 9.00293C116.307 9.00293 109.642 15.6683 109.642 23.8905C109.642 32.1127 116.307 38.7781 124.529 38.7781Z" fill="#E8252E"/>
<path d="M161.476 95.7607H-29.4893" stroke="#E4003A" stroke-width="12.2197" stroke-linecap="round"/>
<path d="M161.476 84.7341L-29.4893 84.7339" stroke="#E8252E" stroke-width="12.2197" stroke-linecap="round"/>
<path d="M161.476 73.7031H-29.4893" stroke="#EB5B00" stroke-width="12.2197" stroke-linecap="round"/>
<path d="M161.476 62.6765L-29.4893 62.6763" stroke="#FFB200" stroke-width="12.2197" stroke-linecap="round"/>
<path d="M79.0384 43.1903C48.2524 23.7999 41.1082 64.1029 61.1106 76.7233C77.7721 87.2347 75.5897 92.4398 107.711 94.1941C79.1735 73.5085 79.0384 73.6089 73.4326 53.6669L79.0384 43.1903Z" fill="#1B6AB3"/>
<path d="M152.097 100.074C129.254 101.773 38.2346 83.2152 56.89 47.7841C60.5347 40.8623 71.0857 37.9511 75.0479 44.8852C73.8562 44.3242 72.5048 44.0521 71.0857 44.1575C66.733 44.4811 63.4589 48.2813 63.7824 52.634C64.106 56.9865 67.9062 60.2606 72.2589 59.9371C72.8096 59.8961 73.3352 59.8039 73.8461 59.6594C85.3824 58.1308 86.9977 44.0501 80.9484 34.8732C75.9904 27.3403 62.5846 22.9831 50.0134 30.2846C-14.6073 67.8181 77.5673 149.976 152.097 100.074Z" fill="#2DADD0"/>
<path fill-rule="evenodd" clip-rule="evenodd" d="M20.3859 102.091C5.66282 105.686 3.95577 99.7727 -6.47125 92.627C-28.4796 77.5653 -36.912 107.423 -66.9023 99.1225C-32.008 133.828 -22.9822 109.931 -6.26241 104.938C3.68341 101.966 6.75355 106.779 13.8949 112.026C45.7927 135.421 51.3528 99.4293 75.5778 107.839C49.4065 76.3408 40.6145 97.1267 20.3859 102.091Z" fill="#1656A1"/>
<path d="M65.4192 96.7989L142.283 58.683C142.935 58.3594 143.725 58.6255 144.048 59.282C144.102 59.3908 144.139 59.5033 144.161 59.617C144.677 61.8426 144.36 64.1749 143.353 66.5527C140.639 72.9591 132.728 79.8207 122.769 85.7075C112.928 91.5245 101.04 96.4369 90.2215 99.0205C80.3717 101.373 71.3396 101.799 65.3941 99.2483C64.7237 98.9607 64.4111 98.1825 64.6964 97.5092C64.8392 97.1717 65.1053 96.9251 65.4192 96.7989ZM141.765 61.8885L69.4347 97.7564C74.7207 98.9178 81.8645 98.2919 89.618 96.4402C100.194 93.9144 111.817 89.1117 121.439 83.424C130.942 77.8063 138.444 71.373 140.927 65.5112C141.455 64.2637 141.745 63.0505 141.765 61.8885Z" fill="#18202D"/>
<path d="M141.766 61.8887L69.4355 97.7566C74.7216 98.918 81.8653 98.2921 89.6188 96.4404C100.195 93.9146 111.818 89.1119 121.44 83.4242C130.943 77.8065 138.444 71.3732 140.928 65.5114C141.456 64.264 141.746 63.0507 141.766 61.8887Z" fill="#18202D"/>
<path d="M89.7164 107.619L80.4433 100.342C79.8689 99.8914 79.7635 99.0606 80.2113 98.4839C80.4608 98.1626 80.8284 97.9889 81.2046 97.9757C82.7275 97.7943 84.3022 97.5463 85.916 97.2375C87.5965 96.916 89.3239 96.5264 91.0841 96.0753C91.7896 95.8945 92.5075 96.3196 92.6885 97.029C92.7375 97.2212 92.742 97.4141 92.7084 97.5971L91.9084 106.75C91.8449 107.479 91.2101 108.022 90.4844 107.957C90.1872 107.93 89.9218 107.806 89.7164 107.619ZM84.5011 100.174L89.5027 104.099L89.9415 99.0791C88.7527 99.3591 87.5732 99.6115 86.4074 99.8346C85.7672 99.957 85.1317 100.07 84.5011 100.174Z" fill="#18202D"/>
<path d="M84.502 100.174L89.5036 104.099L89.9424 99.0791C88.7535 99.359 87.574 99.6114 86.4082 99.8345C85.768 99.9569 85.1325 100.07 84.502 100.174Z" fill="#18202D"/>
<path d="M87.0284 69.0256C87.0284 69.0256 83.6079 72.7938 81.8641 75.8706C80.8144 77.7182 79.5067 81.0584 78.4112 83.8575C77.6821 85.7199 77.0469 87.3429 76.6436 88.1274C75.6342 90.0865 82.7684 91.0755 84.2956 89.2964C85.3262 88.097 83.7482 87.2138 82.4784 86.5029C81.8634 86.1587 81.3208 85.855 81.1819 85.5756C80.754 84.7185 87.7758 74.3877 90.7241 71.7195C93.6745 69.0518 92.8757 65.9947 91.5123 62.4352C93.4993 63.2473 96.0294 63.4885 98.8079 63.7534C101.214 63.9828 103.807 64.23 106.395 64.881C104.12 66.5527 103.17 70.2478 102.442 73.0791C102.191 74.0529 101.967 74.9247 101.724 75.5766C100.778 78.1246 99.9189 82.1387 99.9189 82.1387L103.746 80.5144C103.746 80.5144 105.527 74.6242 107.717 71.6C109.909 68.5749 112.245 62.5717 111.649 61.3631C111.297 60.6437 109.572 58.8386 105.66 57.268C101.749 55.698 93.9529 53.6806 93.9529 53.6806C93.9529 53.6806 93.6174 53.4608 93.0681 52.3281C93.4467 51.7546 93.7087 50.4718 94.2122 48.005C94.4434 46.8725 94.7255 45.4907 95.0932 43.8134C95.7316 40.9044 96.4794 39.1646 97.1668 38.1926C100.318 40.9272 105.098 44.2725 107.554 45.1199C107.926 45.2479 108.294 45.3728 108.655 45.4956C110.826 46.233 112.769 46.8931 114.019 47.674C114.456 48.0575 115.03 48.4494 115.459 48.7425C115.723 48.9228 115.933 49.0658 116.021 49.1462C116.336 49.4315 117.959 50.6257 118.24 50.3328C118.396 50.1699 118.117 49.8759 117.853 49.5971C117.642 49.3737 117.439 49.16 117.476 49.0309C117.559 48.7405 118.795 48.9318 119.727 49.1039C120.661 49.2762 121.961 49.4814 121.654 49.2639C122.093 49.3769 122.799 49.2596 122.439 48.8774C122.079 48.4939 119.478 47.5563 119.065 47.4272C118.818 47.3491 118.213 47.103 117.653 46.8752C117.275 46.7214 116.918 46.576 116.704 46.4959C116.458 46.4044 115.824 46.1455 115.163 45.8436L115.164 45.8398C114.976 45.738 114.787 45.6386 114.605 45.5442C113.177 44.8055 111.928 43.8161 110.76 42.8906C110.103 42.3703 109.472 41.8702 108.849 41.4466C108.368 41.119 107.731 40.6645 107.043 40.174C105.647 39.1783 104.042 38.033 103.097 37.4926C102.106 36.9256 100.301 33.9095 99.9901 33.2661C99.6788 32.6228 99.4387 32.297 98.1807 31.8595C96.9229 31.4221 91.5729 31.9137 91.5729 31.9137L84.4242 34.246C84.4242 34.246 82.9935 36.3136 81.0876 38.5191C79.6325 40.1875 78.7153 42.3014 78.7153 42.3014C78.7153 42.3014 74.135 49.0858 73.8727 50.5465C73.6125 52.0084 72.8573 58.2378 73.1245 60.4972C73.3138 62.0875 72.6015 64.1296 72.0766 65.6344C71.8559 66.2677 71.6682 66.8058 71.5948 67.1753C71.3451 68.4221 72.1887 69.5217 72.3053 68.7658C72.7682 69.8088 73.2941 69.6425 73.2406 69.1903C73.6528 70.2639 74.3588 70.8911 74.6506 70.7918C74.9372 70.6949 75.1717 67.8694 75.1717 67.8694C75.1717 67.8694 75.7125 69.7631 75.9482 69.2144C76.1825 68.6658 75.9553 65.7604 75.6161 63.6133C75.4409 62.5158 75.928 60.4421 76.4738 58.1179C76.9963 55.8923 77.5729 53.4369 77.6741 51.3883C79.0409 50.0468 82.0877 45.8727 82.0877 45.8727L83.2304 49.7656C83.2304 49.7656 80.669 56.6943 81.729 60.0841C82.7869 63.4733 87.0284 69.0256 87.0284 69.0256Z" fill="#18202D"/>
<path d="M89.207 25.175C91.0027 26.5879 91.7798 32.457 91.7798 32.457L84.5732 34.6032C84.5732 34.6032 84.5408 33.4662 84.0335 33.1483C80.6475 29.8875 83.038 29.753 83.038 29.753C83.038 29.753 82.2877 27.8967 82.3984 27.0484C82.9764 23.8241 87.4108 23.763 89.207 25.175Z" fill="#18202D"/>
<path d="M7.81445 98.5658C16.1941 100.964 25.463 99.3606 35.2302 95.4941C27.2276 100.775 14.6583 105.612 7.81445 98.5658Z" fill="#2286BE"/>
<path d="M20.5039 113.634C64.9045 105.964 116.38 138.949 150.223 99.2295C103.086 118.682 65.2533 95.0332 20.5039 113.634Z" fill="#2DADD0"/>
<path d="M93.3734 130.198C128.483 130.198 156.945 101.736 156.945 66.6268C156.945 31.5171 128.483 3.05518 93.3734 3.05518C58.2637 3.05518 29.8018 31.5171 29.8018 66.6268C29.8018 101.736 58.2637 130.198 93.3734 130.198Z" stroke="#2DADD0" stroke-width="6.10987"/>
<path d="M46.5064 92.1046C57.548 101.838 71.1351 114.135 132.799 104.118C95.3963 97.501 84.6673 93.7952 73.5538 85.0408C60.0365 74.3928 41.8434 61.5258 52.2053 40.0986C26.118 57.0785 28.5192 76.2772 46.5064 92.1046Z" fill="#2598C9"/>
</g>
<path d="M9.55273 97.4901C0.534306 96.2952 6.95355 83.5897 11.6826 76.4158C15.5585 70.5269 27.157 67.0272 36.4406 72.8288C53.1463 83.2695 54.8221 97.0996 77.7517 107.246C67.2163 111.395 28.4018 123.328 17.6262 85.9966L9.55273 97.4901Z" fill="#1B6AB3"/>
<path d="M23.3079 82.3628C18.7781 78.3569 9.5599 80.3183 9.25842 85.3338C10.3818 84.6459 11.6954 84.2277 13.1175 84.1778C17.4794 84.0241 21.1491 87.4439 21.3027 91.8057C21.4565 96.1679 18.0365 99.8374 13.6746 99.9911C13.1227 100.011 12.5902 99.9761 12.0664 99.8884C0.43227 99.6286 -2.71115 85.8086 2.29979 76.026C6.40553 67.9968 20.6645 61.9262 33.2794 68.0064C55.9798 78.9486 60.6836 100.282 91.2568 109.979C30.3293 109.979 44.0663 100.721 23.3079 82.3628Z" fill="#2DADD0"/>
</svg>
