<svg width="335" height="332" viewBox="0 0 335 332" fill="none" xmlns="http://www.w3.org/2000/svg">
<g clip-path="url(#clip0_4127_3198)">
<path d="M-80.8067 65.1072C-78.7515 67.5903 -76.1057 70.8338 -74.073 73.3097C-73.4363 74.0854 -73.8026 73.7296 -73.364 74.2664C-72.5035 75.3183 -71.6728 76.2595 -70.8251 77.2903C-70.5443 77.6321 -70.963 77.2658 -70.667 77.6229C-69.0439 79.5785 -67.45 81.3932 -65.7659 83.3466C-57.4692 92.9623 -49.0003 102.146 -39.912 111.238C-36.9063 114.247 -33.2608 117.861 -30.0275 120.834C-29.6514 121.181 -29.8312 120.926 -29.7565 120.989C-28.5866 121.969 -29.0442 121.717 -28.3257 122.404C-25.4801 125.123 -22.1801 128.078 -19.302 130.531C-18.0635 131.585 -19.2196 130.43 -18.0231 131.547C-17.9398 131.625 -18.2951 131.406 -17.9613 131.701C-17.2044 132.37 -15.7373 133.594 -15.1429 134.097C-13.9978 135.066 -13.8064 135.223 -12.7144 136.121C-11.2075 137.36 -9.41646 138.841 -7.77264 140.114C-7.4215 140.386 -7.84377 139.972 -7.28019 140.4C-6.7142 140.832 -5.25055 141.972 -4.74411 142.377C-4.24677 142.776 -4.49297 142.651 -4.4103 142.729C-3.73163 143.372 -1.90753 144.571 -1.68125 144.733C2.41708 147.708 5.99637 150.311 9.97124 152.932C13.0367 154.952 16.2904 156.951 19.3065 158.723C22.8467 160.801 25.9158 162.517 29.4741 164.31C29.8492 164.499 29.4409 164.216 29.8989 164.446C34.8072 166.897 39.7837 169.104 44.8673 171.039C45.3749 171.232 44.6985 171.044 45.2046 171.239C48.3401 172.473 53.3292 174.129 55.3488 174.4C57.547 175.015 60.18 175.65 62.1747 176.105C63.455 176.395 62.1937 176.208 63.7796 176.489C64.1371 176.55 63.6833 176.412 64.2185 176.507C66.4712 176.905 68.9222 177.288 71.1843 177.512C71.6424 177.557 71.5224 177.497 71.6528 177.503C72.7478 177.558 74.5482 177.816 74.9432 177.848C77.9545 178.114 80.1766 178.141 82.9879 178.094C83.641 178.081 82.8675 178.038 83.496 178.021C86.7528 177.932 90.1369 177.65 93.2887 177.218C93.9919 177.121 93.3533 177.265 93.6898 177.22C95.1742 177.016 95.4862 176.867 96.9059 176.623C97.2052 176.57 97.045 176.643 97.1004 176.637C97.9709 176.543 98.6774 176.286 98.8932 176.237C101.613 175.606 103.403 175.239 105.996 174.424C106.303 174.325 105.594 174.494 106.458 174.219C112.234 172.378 118.216 169.699 123.393 166.758C124.209 166.294 123.647 166.661 123.701 166.636C124.571 166.213 125.062 165.805 125.324 165.643C127.444 164.33 129.262 163.209 130.565 162.17C134.303 159.59 137.622 156.953 141.044 153.926C145.374 150.095 149.228 145.84 152.681 141.251C152.758 141.149 152.655 141.358 152.808 141.154C154.65 138.656 154.243 139.092 155.331 137.365C155.608 136.924 156.545 135.664 156.623 135.552C156.92 135.138 156.684 135.613 156.78 135.473C157.574 134.304 157.282 134.405 158.287 132.793C158.319 132.743 158.218 132.973 158.305 132.84C158.575 132.425 158.816 132.006 159.08 131.598C159.682 130.665 159.963 130.381 160.786 128.901C160.89 128.713 160.628 128.942 161.501 127.49C161.847 126.912 163.376 124.35 163.82 123.639C164.26 122.928 163.991 123.436 164.023 123.386C165.236 121.489 164.808 122.227 165.459 121.304C166.114 120.385 165.816 120.566 166.048 120.169C166.279 119.769 167.212 118.407 167.451 118.078C167.687 117.748 167.423 118.18 167.63 117.884C169.012 115.936 168.158 116.975 168.586 116.312C169.608 114.758 170.567 113.666 171.638 112.343C171.928 111.988 171.673 112.263 171.929 111.944C172.954 110.682 173.615 109.962 174.849 108.593C175.049 108.367 176.039 107.243 176.77 106.608C176.874 106.517 176.61 106.808 177.117 106.33C177.862 105.621 179.261 104.38 180.109 103.673C180.741 103.144 179.979 103.71 180.798 103.063C181.158 102.783 180.516 103.327 181.188 102.804C181.854 102.275 183.617 100.971 184.312 100.502C185.006 100.024 184.608 100.259 184.663 100.218C184.988 99.9751 186.31 99.096 186.438 99.0203C186.608 98.913 186.778 98.8062 186.95 98.6999C192.861 94.9952 199.555 94.1024 206.243 94.6285C206.783 94.67 206.426 94.6111 206.508 94.6171C208.365 94.7732 206.893 94.7141 208.189 94.8764C208.011 94.7966 208.766 94.8813 210.071 95.0586C210.7 95.1458 210.361 95.0735 210.419 95.0793C211.35 95.1802 211.986 95.3365 212.151 95.3735C212.763 95.5114 213.429 95.5914 213.841 95.692C214.252 95.7929 213.29 95.6437 214.527 95.8796C214.879 95.9263 213.969 95.6921 214.912 95.8673C218.459 96.5127 224.989 98.1481 227.817 98.7674C230.641 99.3942 231.557 99.5677 233.21 99.8888C236.202 100.439 235.112 100.206 236.979 100.481C238.855 100.732 237.933 100.688 238.2 100.745C238.463 100.799 238.755 100.817 239.084 100.867C239.412 100.917 238.698 100.845 239.472 100.94C240.246 101.043 242.376 101.193 242.653 101.184C243.239 101.176 242.283 101.091 244.341 101.206C244.46 101.212 244.074 101.219 244.528 101.239C248.131 101.395 251.896 101.166 255.436 100.485C255.924 100.39 255.493 100.5 255.777 100.444C258.714 99.8095 257.654 99.994 259.234 99.5172C258.915 99.6574 259.696 99.5146 261.664 98.8171C261.756 98.784 261.85 98.7497 261.947 98.7143C263.244 98.2318 263.01 98.2898 263.83 97.9482C264.077 97.8462 264.978 97.4922 265.133 97.4123C265.65 97.1462 264.793 97.4943 266.952 96.5448C267.047 96.5023 266.755 96.6579 267.081 96.5096C269.181 95.5305 269.388 95.3904 271.589 94.1952C273.305 93.2652 276.269 91.4525 278.073 90.1625C278.067 90.2415 279.77 88.9994 280.417 88.4451C281.562 87.5702 282.767 86.5828 283.824 85.673C284.187 85.3597 283.959 85.5777 284.006 85.5393C284.723 84.9485 285.162 84.4994 285.391 84.2887C287.867 81.9961 289.793 80.0306 291.899 77.5878C291.973 77.5 292.072 77.342 292.647 76.7026C292.684 76.6609 292.009 77.4819 292.987 76.3267C293.968 75.1717 295.754 72.9411 296.975 71.2253C297.274 70.8113 298.004 69.7499 298.603 68.9099C298.683 68.7979 298.604 68.9269 298.721 68.7657C299.095 68.2437 299.267 67.9366 299.706 67.3197C300.145 66.6995 301.019 65.3999 302.106 63.5735C302.14 63.5152 302.383 63.0739 302.724 62.498C303.268 61.5827 304.022 60.2756 304.56 59.2991C304.818 58.8319 304.641 59.1246 304.686 59.0433C306.397 55.8983 307.558 53.6272 309.186 50.1502C309.486 49.5096 310.305 47.6693 310.856 46.4215C311.457 45.0515 310.918 46.4893 312.227 43.3137C312.748 42.0289 313.35 40.3773 314.263 38.0605C315.966 33.5374 317.423 29.3124 318.871 24.6865C318.936 24.4785 319.13 23.8173 319.281 23.3286C319.506 22.6032 319.633 22.2069 319.792 21.6856C320.456 19.5036 321.032 17.5121 321.633 15.3958C321.859 14.5947 321.786 14.876 322.053 13.9215C322.318 12.9714 322.491 12.3229 322.847 11.0255C323.116 10.0423 323.387 9.07813 323.734 7.76595C323.736 7.71357 323.976 6.81214 324.384 5.22185C324.463 4.91628 324.375 5.24289 324.412 5.0983C324.562 4.50903 324.704 3.97154 324.847 3.40395C324.881 3.26672 324.88 3.25947 324.908 3.14733C325.147 2.19276 325.548 0.635171 325.615 0.36896C325.875 -0.648779 325.994 -1.14243 326.192 -1.93299C326.389 -2.72311 326.099 -1.54098 326.328 -2.4637C326.8 -4.36169 327.404 -6.83994 327.871 -8.76385C328.057 -9.53137 327.927 -9.00833 327.954 -9.11818C328.346 -10.7341 328.74 -12.3522 328.949 -13.2297C329.227 -14.3354 329.186 -14.2131 329.744 -16.4922C329.788 -16.6712 329.847 -16.8989 329.679 -16.2102C329.512 -15.5213 329.255 -14.469 329.02 -13.4949C328.966 -13.2716 328.657 -11.9762 328.614 -11.7974C328.281 -10.4052 328.223 -10.2039 328.205 -10.1307C327.993 -9.27747 327.619 -7.71081 327.516 -7.28635C327.05 -5.35926 326.652 -3.73923 326.257 -2.13373C325.998 -1.0837 325.979 -0.96871 325.775 -0.151291C325.096 2.56597 324.832 3.54312 324.183 6.10333C324.042 6.65606 324.2 6.10838 323.67 8.0876C323.636 8.21732 323.241 9.66924 323.018 10.517C322.991 10.6233 322.996 10.621 322.958 10.7611C322.707 11.6994 322.532 12.3292 322.252 13.3502C321.973 14.3672 321.633 15.5928 321.298 16.7573C321.096 17.4608 320.827 18.3536 320.727 18.6869C320.444 19.6283 320.154 20.644 319.969 21.2266C319.782 21.8139 320.12 20.6569 319.644 22.202C319.641 22.2637 319.615 22.399 319.601 22.495C318.569 25.8716 317.491 29.1836 316.325 32.5341C316.18 32.9493 316.338 32.5279 316.183 32.973C315.526 34.8504 314.925 36.4816 314.196 38.4118C313.632 39.9049 313.002 41.54 312.372 43.0872C311.967 44.0224 311.014 46.3119 310.278 47.9544C310.02 48.5297 310.031 48.4882 309.845 48.8956C309.138 50.4297 309.485 49.7197 309.295 50.1429C308.468 51.9564 308.35 52.0876 307.313 54.1892C307.259 54.3018 306.599 55.6733 306.503 55.8592C305.903 57.0461 306.393 56.0505 306.007 56.7869C305.298 58.1256 304.787 59.0568 303.919 60.613C303.665 61.0683 303.066 62.1522 302.53 63.0158C302.46 63.129 302.489 63.0601 302.433 63.1517C301.423 64.8052 301.419 64.8613 300.842 65.8025C300.264 66.7419 299.293 68.1579 299.091 68.4386C298.565 69.1806 299.475 67.857 299.498 67.8131C299.8 67.3183 299.116 68.3613 298.574 69.142C298.467 69.236 297.707 70.3239 298.01 69.9494C298.045 69.9071 298.465 69.2987 298.574 69.142C298.132 69.8478 297.294 71.0542 296.298 72.3277C295.828 72.9202 296.257 72.3487 294.855 74.1649C294.209 74.9864 294.482 74.6876 293.909 75.4091C292.601 77.0549 290.777 79.097 289.28 80.6614C288.737 81.2296 289.279 80.6885 288.907 81.0767C287.915 82.1057 287.009 82.9798 285.965 83.9627C285.87 84.0516 286.115 83.8482 285.788 84.1518C283.304 86.4449 281.017 88.3067 278.134 90.3507C276.754 91.3418 274.179 93.0029 272.644 93.8645C269.982 95.4095 266.555 97.0065 264.148 97.9744C262.563 98.6124 262.914 98.4878 262.231 98.7629C262.073 98.8253 261.899 98.8915 261.715 98.9597C260.354 99.4781 258.46 99.9698 258.161 100.035C258.15 100.043 259.576 99.6337 258.811 99.8391C258.363 99.941 258.177 100.03 258.161 100.035C257.951 100.11 255.082 100.75 254.505 100.825C254.195 100.88 254.372 100.872 254.21 100.899C250.334 101.561 246.364 101.672 242.394 101.379C242.324 101.374 242.431 101.356 242.267 101.343C239.969 101.157 238.5 100.999 236.618 100.742C234.734 100.479 233.253 100.196 232.159 99.937C230.75 99.673 228.745 99.2241 227.594 98.954C226.446 98.6855 226.271 98.7 226.169 98.6786C223 97.9966 221.186 97.522 217.905 96.7991C216.343 96.45 213.245 95.8402 211.532 95.5837C210.193 95.3769 209.367 95.2494 208.126 95.1187C207.956 95.1013 208.125 95.1468 208.073 95.1421C206.673 95.0295 207.351 95.0357 207.064 94.9951C206.029 94.8644 205.374 94.7757 203.586 94.7528C203.168 94.746 201.97 94.8442 201.219 94.8867C200.243 94.9433 200.608 94.8832 199.591 94.9735C199.505 94.983 199.524 94.9984 198.897 95.0646C195.989 95.3706 192.865 96.1613 190.118 97.4521C189.742 97.629 190.238 97.4329 189.697 97.6933C188.846 98.1087 188.031 98.5589 187.187 99.083C185.497 100.134 183.873 101.25 182.398 102.358C181.855 102.768 182.178 102.488 182.056 102.571C181.313 103.079 180.363 103.952 180.204 104.09C176.396 107.368 173.702 110.189 170.621 114.301C170.447 114.523 169.245 116.31 168.649 117.069C168.608 117.121 168.011 117.865 167.587 118.596C167.561 118.642 167.917 118.166 167.345 119.029C166.773 119.892 165.9 121.314 165.12 122.508C164.873 122.887 164.255 123.758 163.611 124.946C163.569 125.021 162.616 126.88 162.16 127.47C162.085 127.566 162.066 127.409 161.285 128.818C161.136 129.087 161.441 128.619 161.038 129.322C160.418 130.402 159.546 131.803 158.783 133.123C158.649 133.355 158.108 134.357 157.575 135.098C157.491 135.214 157.609 134.967 157.346 135.372C156.1 137.287 154.774 139.295 153.382 141.161C152.886 141.822 153.095 141.447 152.57 142.125C152.042 142.81 150.973 144.155 150.415 144.874C149.864 145.586 150.562 144.886 149.707 145.924C147.183 148.967 144.418 151.79 141.462 154.396C140.001 155.686 138.532 156.921 137.058 158.107C136.386 158.644 136.964 158.229 135.975 159.013C132.321 161.988 125.51 166.521 121.849 168.344C118.969 169.818 122.534 167.862 120.344 168.996C119.271 169.545 118.124 170.24 117.865 170.369C115.28 171.654 113.523 172.347 111.081 173.312C110.583 173.505 111.09 173.366 110.666 173.529C109.218 174.086 107.682 174.592 106.29 175.036C105.664 175.234 105.8 175.232 105.209 175.409C103.799 175.825 102.548 176.149 101.162 176.454C101.036 176.481 101.87 176.226 100.826 176.481C99.1396 176.889 97.0157 177.295 95.0388 177.662C94.4534 177.769 94.4443 177.869 93.1703 177.993C92.9028 178.015 93.2272 177.867 91.7661 178.154C91.5253 178.207 89.0451 178.619 87.8105 178.621C87.4852 178.625 86.6542 178.593 85.9412 178.647C85.8444 178.655 86.2353 178.684 85.6435 178.721C83.556 178.848 81.369 178.878 79.2208 178.848C78.6471 178.839 79.5005 178.913 78.6449 178.896C76.2842 178.852 73.3684 178.633 71.0813 178.359C70.2383 178.258 70.8266 178.279 70.7658 178.267C69.7886 178.076 69.1921 178.104 68.8633 178.067C66.8291 177.832 65.3129 177.531 63.4513 177.196C62.9381 177.102 63.2916 177.223 63.1887 177.208C62.1211 177.047 62.9279 177.109 62.26 176.966C60.3715 176.558 58.3437 176.096 56.4674 175.619C55.7807 175.443 56.5363 175.704 55.92 175.544C52.2392 174.59 48.5727 173.42 45.1096 172.124C44.4686 171.883 44.8903 171.985 44.7601 171.925C43.864 171.515 42.4739 171.095 42.1585 170.982C40.7259 170.471 40.1925 170.206 38.9407 169.694C32.8972 167.243 25.6305 163.533 20.3101 160.439C13.3056 156.376 8.14907 152.939 1.84809 148.499C1.44718 148.214 1.80852 148.561 1.46236 148.317C-2.9418 145.196 -7.20034 141.918 -11.4533 138.53C-11.8036 138.251 -11.3452 138.712 -11.909 138.265C-13.0729 137.342 -14.4988 136.17 -15.6255 135.204C-16.1747 134.732 -15.3887 135.305 -15.9421 134.832C-17.2301 133.728 -18.6189 132.546 -19.9564 131.411C-20.5251 130.928 -19.7225 131.719 -20.4557 131.088C-25.4203 126.815 -30.2136 122.469 -34.9542 117.806C-35.2778 117.488 -35.4555 117.098 -36.1728 116.45C-36.2561 116.431 -36.2894 116.472 -36.3453 116.484C-43.2619 109.859 -49.819 103.045 -56.3313 96.0001C-56.6057 95.7031 -56.1969 96.2767 -56.7284 95.7019C-59.8016 92.3754 -62.774 89.1234 -65.7717 85.5931C-66.0688 85.2429 -65.7925 85.3131 -66.7039 84.3136C-66.8639 84.1395 -68.2267 82.6155 -68.5996 82.2398C-68.6508 82.1892 -68.4634 82.5202 -68.8974 82.0252C-71.4188 79.1465 -73.9993 76.1019 -76.4237 73.1442C-76.8138 72.668 -76.3287 73.1166 -76.6058 72.7769C-78.5676 70.3724 -80.7761 67.805 -82.6 65.4541C-83.8171 63.8828 -83.2383 64.3604 -83.7916 63.4522C-83.87 63.3238 -84.6394 62.3693 -84.6136 62.2673C-84.5516 62.0082 -83.9992 62.3243 -83.9773 61.9936C-83.9733 61.9392 -84.6097 61.1856 -84.5771 61.1592C-84.5771 61.1592 -84.5771 61.1592 -84.5771 61.1592C-84.5675 61.1515 -84.4999 61.207 -84.3408 61.362C-84.2925 61.4098 -83.5164 62.3102 -83.3011 62.5131C-83.1516 62.6545 -83.3164 62.315 -83.0276 62.6165C-82.7387 62.9181 -82.5063 63.3187 -82.0387 63.8295C-81.5705 64.3398 -81.6883 64.0428 -80.8067 65.1072ZM222.422 97.7132C221.363 97.4412 221.183 97.5015 222.341 97.7439C222.397 97.7555 222.477 97.7271 222.422 97.7132ZM317.453 29.1491C316.988 30.5013 316.687 31.4336 317.023 30.4815C317.356 29.5289 317.594 28.7368 317.453 29.1491ZM321.774 14.9656C321.312 16.5714 321.27 16.8338 321.752 15.1091C321.779 15.0088 321.801 14.8717 321.774 14.9656ZM-80.6606 67.2187C-80.6674 67.2046 -81.2273 66.517 -81.2435 66.5031C-81.616 66.1979 -80.4961 67.5726 -80.6606 67.2187ZM325.532 0.741088C325.404 1.24366 325.037 2.70256 325.2 2.0743C325.332 1.56758 325.693 0.113968 325.532 0.741088ZM171.715 112.347C171.703 112.358 171.307 112.853 171.324 112.851C171.378 112.837 171.919 112.144 171.715 112.347ZM331.499 -23.5482C330.586 -19.9349 330.063 -17.816 331.025 -21.6799C331.202 -22.3843 330.649 -20.1715 330.872 -21.063C331.282 -22.7023 331.566 -23.8263 331.992 -25.4698C332.069 -25.7714 331.551 -23.7579 331.498 -23.5418C331.498 -23.544 331.499 -23.5461 331.499 -23.5482ZM221.836 97.456C221.814 97.4496 220.958 97.2511 220.937 97.2479C220.466 97.172 222.191 97.5713 221.836 97.456ZM151.294 143.143C151.268 143.178 149.991 144.766 149.945 144.819C149.339 145.699 151.926 142.486 151.294 143.143ZM278.103 90.1436C278.872 89.5766 279.793 88.8911 280.413 88.4477C279.658 89.0247 278.883 89.5948 278.103 90.1436Z" fill="white"/>
<path d="M333.463 -31.9221C335.238 -35.438 339.174 -39.1219 342.774 -40.6539C343.892 -41.1536 343.356 -40.8552 344.129 -41.1658C345.638 -41.7466 347.136 -42.198 348.696 -42.4849C349.222 -42.5785 348.585 -42.3745 349.135 -42.4716C352.153 -42.9803 355.011 -43.0903 358.093 -42.8766C373.174 -41.5153 386.782 -34.7435 399.108 -26.1508C403.176 -23.2794 407.83 -19.3941 411.544 -15.8337C411.978 -15.4198 411.765 -15.7134 411.85 -15.6379C413.185 -14.4432 412.664 -14.7736 413.482 -13.9258C416.689 -10.5828 420.033 -6.60485 422.579 -2.93912C423.66 -1.36739 422.698 -3.02031 423.698 -1.38687C423.766 -1.27338 423.45 -1.64051 423.727 -1.20154C424.351 -0.229262 425.534 1.73262 425.957 2.52816C426.78 4.05891 426.933 4.35883 427.649 5.85856C428.618 7.9113 429.585 10.4581 430.275 12.8396C430.42 13.3438 430.297 12.6569 430.529 13.4608C430.621 13.786 430.763 14.3293 430.895 14.9092C431.098 15.8058 431.331 16.7494 431.435 17.1791C431.609 17.8998 431.48 17.6067 431.503 17.7364C431.676 18.8068 432.533 21.1094 432.667 21.4624C434.603 26.998 436.878 31.6781 440.518 35.8561C443.295 39.0558 447.027 41.6937 450.69 43.2935C455.056 45.2074 459.085 46.0461 463.712 46.5127C464.2 46.5585 463.634 46.4368 464.231 46.4907C470.594 47.039 476.953 46.7105 483.321 46.377C483.96 46.3428 483.141 46.4507 483.779 46.4198C487.691 46.2175 493.883 45.9684 496.202 45.6864C498.863 45.6184 502.103 45.6468 504.462 45.834C506.001 45.9605 504.506 45.9163 506.389 46.0319C506.812 46.0621 506.267 45.9619 506.901 46.0132C509.573 46.2312 512.494 46.71 515.06 47.3679C515.588 47.5034 515.456 47.4216 515.607 47.4545C516.885 47.7231 518.866 48.5596 519.295 48.7553C522.579 50.1711 524.83 51.498 527.413 53.6295C527.998 54.1282 527.351 53.4939 527.906 53.9715C529.695 55.5322 531.3 57.3247 532.727 59.3377C533.603 60.5728 534.37 61.8073 535.06 63.0743C535.459 63.8173 535.044 63.1602 535.231 63.5165C536.033 65.096 536.273 65.3928 536.918 66.97C537.049 67.3026 536.934 67.1319 536.954 67.194C537.269 68.1643 537.651 68.9624 537.737 69.2103C538.8 72.3493 539.13 74.456 539.544 77.6211C539.588 77.9988 539.546 77.1396 539.664 78.2035C540.432 85.3459 539.427 92.945 537.763 99.8043C537.5 100.878 537.648 100.102 537.627 100.169C537.292 101.263 537.202 101.977 537.116 102.324C536.425 105.065 535.579 107.553 535.087 109.428C531.343 120.792 526.501 131.702 521.466 142.436C521.402 142.573 521.478 142.309 521.35 142.583C519.813 145.852 520.162 145.248 519.217 147.459C518.977 148.018 518.122 149.633 518.046 149.779C517.773 150.305 517.979 149.724 517.891 149.901C517.164 151.371 517.453 151.215 516.516 153.22C516.486 153.283 516.576 153.005 516.495 153.171C516.241 153.687 516.013 154.211 515.763 154.717C515.192 155.874 514.911 156.255 514.129 158.069C514.03 158.298 514.289 157.997 513.454 159.785C513.121 160.496 511.662 163.668 511.253 164.551C510.842 165.435 511.089 164.812 511.059 164.875C509.93 167.249 510.326 166.334 509.722 167.508C509.122 168.683 509.415 168.413 509.211 168.91C509.007 169.407 508.189 171.153 507.987 171.581C507.784 172.009 508.003 171.461 507.827 171.843C506.66 174.38 507.404 172.995 507.057 173.847C506.242 175.857 505.474 177.363 504.693 179.19C504.483 179.684 504.676 179.289 504.493 179.731C503.77 181.484 503.306 182.519 502.529 184.533C502.401 184.862 501.816 186.504 501.364 187.536C501.3 187.682 501.439 187.25 501.141 187.999C500.696 189.119 499.919 191.153 499.483 192.371C499.16 193.27 499.577 192.256 499.152 193.381C498.964 193.881 499.278 192.94 498.927 193.883C498.574 194.823 497.73 197.238 497.423 198.159C497.114 199.077 497.314 198.585 497.291 198.66C497.149 199.113 496.58 200.893 496.532 201.05C496.208 202.051 495.895 203.044 495.593 204.028C493.394 211.214 491.698 217.135 489.921 224.31C489.768 224.935 489.901 224.526 489.877 224.621C489.366 226.757 489.698 225.059 489.312 226.537C489.424 226.336 489.198 227.212 488.857 228.693C488.694 229.406 488.808 229.023 488.795 229.089C488.584 230.152 488.375 230.868 488.323 231.054C488.133 231.739 488.006 232.496 487.881 232.958C487.757 233.419 487.958 232.34 487.656 233.728C487.592 234.12 487.869 233.105 487.65 234.157C486.726 238.474 485.284 246.018 484.776 249.362C484.234 252.795 484.101 253.865 483.834 255.807C483.38 259.284 483.579 258.013 483.35 260.142C483.132 262.301 483.156 261.268 483.104 261.574C483.051 261.894 483.035 262.247 482.985 262.644C482.936 263.039 483.007 262.18 482.912 263.111C482.814 264.048 482.637 266.557 482.635 266.875C482.626 267.556 482.745 266.453 482.563 268.833C482.553 268.97 482.56 268.526 482.522 269.048C482.236 273.023 482.082 277.764 482.114 281.808C482.118 282.372 482.089 281.868 482.091 282.196C482.138 285.596 482.16 284.465 482.27 286.394C482.2 285.951 482.187 287.063 482.356 289.712C482.465 291.295 482.472 291.019 482.57 292.028C482.6 292.331 482.682 293.426 482.714 293.621C482.819 294.27 482.736 293.214 483.029 296.01C483.043 296.132 482.978 295.745 483.026 296.167C483.354 298.877 483.433 299.194 483.9 301.997C484.257 304.18 485.116 308.325 485.774 310.717C485.694 310.654 486.369 313.046 486.715 314.002C487.217 315.635 487.807 317.341 488.364 318.823C488.556 319.333 488.415 319.004 488.438 319.069C488.798 320.081 489.127 320.784 489.266 321.118C490.814 324.776 492.235 327.625 494.21 330.834C494.28 330.945 494.416 331.116 494.926 331.962C494.96 332.016 494.288 330.999 495.227 332.459C496.195 333.975 498.139 336.698 499.725 338.536C500.114 338.998 501.124 340.128 501.936 341.017C502.044 341.136 501.918 341.014 502.073 341.186C502.577 341.739 502.881 342.012 503.483 342.646C504.073 343.266 505.407 344.598 507.311 346.166C507.372 346.216 507.834 346.575 508.44 347.058C509.402 347.831 510.833 348.899 511.902 349.63C512.414 349.982 512.094 349.746 512.183 349.807C515.647 352.125 518.257 353.611 522.322 355.482C523.066 355.827 525.25 356.74 526.734 357.299C528.371 357.902 526.646 357.395 530.465 358.646C532.019 359.131 533.987 359.656 536.817 360.355C542.313 361.624 547.503 362.353 553.151 362.714C553.405 362.731 554.209 362.766 554.807 362.795C555.694 362.839 556.181 362.862 556.815 362.883C559.472 362.969 561.906 362.96 564.464 362.886C565.439 362.855 565.098 362.873 566.259 362.825C567.419 362.773 568.191 362.727 569.756 362.623C570.934 362.542 572.127 362.458 573.696 362.304C573.754 362.286 574.835 362.187 576.736 361.956C577.101 361.912 576.709 361.956 576.882 361.934C577.58 361.847 578.245 361.764 578.915 361.671C579.079 361.649 579.086 361.644 579.219 361.625C580.356 361.467 582.213 361.186 582.529 361.134C583.743 360.941 584.318 360.836 585.26 360.669C586.199 360.5 584.797 360.758 585.892 360.558C588.158 360.145 591.033 359.538 593.316 358.992C594.22 358.775 593.602 358.92 593.732 358.889C595.584 358.446 597.485 357.943 598.517 357.653C599.807 357.3 599.635 357.354 602.257 356.569C602.468 356.505 602.738 356.426 601.927 356.673C601.142 356.912 599.947 357.262 598.832 357.572C598.571 357.647 597.049 358.064 596.837 358.118C595.199 358.55 594.993 358.584 594.902 358.608C593.938 358.847 592.072 359.289 591.575 359.399C589.288 359.915 587.423 360.286 585.506 360.64C584.26 360.866 584.126 360.897 583.161 361.06C579.933 361.584 578.752 361.73 575.692 362.105C575.032 362.18 575.693 362.132 573.318 362.361C573.171 362.377 571.397 362.531 570.381 362.611C570.254 362.621 570.258 362.625 570.089 362.638C568.959 362.722 568.204 362.766 566.968 362.831C565.733 362.895 564.242 362.952 562.833 362.976C561.982 362.991 560.89 362.987 560.483 362.983C559.332 362.976 558.099 362.965 557.386 362.937C556.668 362.907 558.073 362.939 556.189 362.871C556.119 362.883 555.958 362.891 555.845 362.902C551.72 362.737 547.663 362.357 543.57 361.719C543.062 361.639 543.58 361.731 543.035 361.644C540.735 361.27 538.759 360.876 536.402 360.321C534.582 359.891 532.615 359.368 530.746 358.785C529.609 358.414 526.869 357.489 524.923 356.687C524.24 356.408 524.288 356.42 523.806 356.214C521.993 355.425 522.836 355.809 522.339 355.595C520.219 354.637 520.058 354.512 517.64 353.225C517.51 353.161 515.948 352.315 515.739 352.187C514.395 351.402 515.521 352.049 514.689 351.542C513.182 350.605 512.16 349.927 510.462 348.711C509.968 348.358 508.781 347.491 507.887 346.74C507.769 346.641 507.842 346.686 507.746 346.607C506.019 345.16 505.963 345.127 504.992 344.266C504.009 343.391 502.644 341.977 502.37 341.674C501.651 340.896 502.937 342.253 502.982 342.287C503.471 342.746 502.446 341.732 501.692 340.913C501.607 340.775 500.561 339.617 500.915 340.059C500.954 340.111 501.54 340.75 501.692 340.913C501.008 340.234 499.821 338.919 498.694 337.45C498.168 336.749 498.673 337.418 497.065 335.275C496.346 334.286 496.599 334.687 495.972 333.799C494.535 331.757 492.963 329.093 491.761 326.772C491.33 325.942 491.728 326.749 491.444 326.2C490.704 324.752 490.097 323.427 489.424 321.877C489.363 321.736 489.494 322.088 489.288 321.603C487.724 317.885 486.668 314.737 485.575 310.701C485.062 308.843 484.263 305.361 483.888 303.243C483.256 299.905 482.705 295.317 482.456 292.362C482.289 290.425 482.307 290.847 482.231 290.007C482.082 288.39 482.009 285.416 482.01 285.005C482.008 284.995 482.08 286.748 482.055 285.812C482.058 285.267 482.011 285.024 482.01 285.005C481.996 284.677 481.936 281.367 481.94 280.691C481.936 280.328 481.916 280.531 481.914 280.342C481.888 275.8 482.08 271.12 482.445 266.573C482.452 266.492 482.468 266.617 482.484 266.425C482.707 263.765 482.867 261.859 483.08 259.749C483.299 257.616 483.528 255.887 483.749 254.594C483.964 252.94 484.343 250.525 484.582 249.114C484.823 247.683 484.792 247.553 484.812 247.424C485.381 243.802 485.801 241.674 486.59 237.755C486.974 235.836 487.735 232.258 488.169 230.34C488.513 228.806 488.745 227.877 489.08 226.439C489.126 226.244 489.052 226.434 489.066 226.375C489.422 224.76 489.301 225.547 489.392 225.218C489.73 224.019 489.935 223.279 490.452 221.175C490.572 220.686 490.846 219.245 491.052 218.443C491.331 217.362 491.256 217.78 491.553 216.643C491.579 216.545 491.551 216.56 491.743 215.857C492.634 212.593 493.685 208.961 494.749 205.416C494.894 204.932 494.673 205.543 494.883 204.842C494.976 204.531 495.071 204.216 495.168 203.898C496.051 200.98 497.084 197.871 498.074 195.114C498.344 194.363 498.203 194.844 498.268 194.683C498.668 193.694 499.118 192.259 499.203 192.026C501.228 186.446 502.986 182.269 505.32 176.694C505.445 176.391 506.371 174.033 506.887 173.026C506.922 172.958 507.435 171.962 507.789 171.039C507.811 170.981 507.497 171.603 507.991 170.493C508.486 169.384 509.259 167.591 509.985 166.084C510.214 165.607 510.796 164.499 511.397 163.043C511.434 162.951 512.33 160.676 512.776 159.927C512.849 159.806 512.875 159.979 513.618 158.253C513.76 157.923 513.467 158.505 513.851 157.642C514.442 156.313 515.277 154.578 515.986 152.948C516.108 152.667 516.608 151.429 517.103 150.489C517.18 150.341 517.077 150.642 517.317 150.135C518.453 147.735 519.618 145.173 520.763 142.741C521.173 141.87 521.018 142.34 521.45 141.435C521.883 140.529 522.73 138.708 523.134 137.75C523.544 136.78 522.99 137.789 523.629 136.352C526.389 130.128 529.109 123.956 531.521 117.606C531.878 116.661 531.555 117.431 532.07 116.041C534.026 110.921 536.737 101.902 537.683 97.2536C538.481 93.5234 537.611 98.2508 538.186 95.3867C538.456 94.0023 538.554 92.5214 538.599 92.1689C539.011 88.8902 539.236 86.6169 539.249 83.6572C539.246 83.0437 539.197 83.6448 539.193 83.1238C539.177 81.3572 539.09 79.4844 538.889 77.8116C538.797 77.0623 538.776 77.2084 538.681 76.5131C538.441 74.8527 538.163 73.4171 537.776 71.8306C537.741 71.6863 538.049 72.6404 537.727 71.4467C537.199 69.5212 536.374 67.1569 535.326 65.1191C535.009 64.5139 534.935 64.528 534.275 63.2069C534.128 62.9335 534.442 63.2069 533.476 61.8057C533.377 61.6647 532.754 60.7622 532.051 59.8208C531.576 59.1804 531.082 58.5501 530.752 58.0975C530.532 57.7917 530.018 57.0437 529.429 56.4458C529.35 56.366 529.625 56.7263 529.146 56.2326C527.471 54.5206 525.523 52.947 523.42 51.6977C522.855 51.3664 523.667 51.9063 522.824 51.419C520.514 50.0794 517.387 48.8549 514.833 48.1904C513.901 47.9456 514.557 48.0669 514.491 48.0446C513.413 47.6926 512.725 47.6686 512.354 47.6002C510.048 47.1908 508.257 46.9276 506.108 46.768C505.509 46.7265 505.929 46.8105 505.81 46.8062C504.569 46.7671 505.499 46.7346 504.713 46.6761C502.532 46.5194 500.068 46.4957 497.843 46.5416C497.022 46.5593 497.947 46.6032 497.209 46.6197C492.869 46.7242 488.343 47.0329 484.085 47.2664C483.283 47.3103 483.784 47.2296 483.617 47.229C482.461 47.2238 480.781 47.4292 480.39 47.4605C478.619 47.6043 477.944 47.5936 476.369 47.6643C468.763 48.0499 459.078 47.6728 452.195 44.9659C443.22 41.5767 437.778 35.4008 433.964 27.3531C433.72 26.827 433.899 27.3899 433.688 26.9338C431.95 23.1235 430.769 19.3093 429.806 15.1592C429.324 13.068 428.645 10.9646 427.819 8.93758C427.624 8.46113 427.839 9.17519 427.519 8.41255C426.865 6.85851 425.935 4.93591 425.13 3.42983C424.74 2.70068 425.332 3.64162 424.936 2.90787C424.003 1.19142 422.89 -0.591989 421.732 -2.24137C421.235 -2.94544 421.919 -1.83675 421.275 -2.7537C416.879 -8.93456 411.661 -14.329 405.854 -19.3694C405.455 -19.7142 405.202 -20.1364 404.313 -20.819C404.219 -20.8377 404.19 -20.7943 404.132 -20.7806C395.493 -27.6893 385.973 -33.4367 375.596 -37.3589C375.158 -37.522 375.884 -37.1584 375.036 -37.4711C370.12 -39.2575 365.192 -40.56 359.914 -41.2267C359.39 -41.2858 359.667 -41.4388 358.129 -41.5284C357.889 -41.5564 355.483 -41.6216 354.905 -41.5582C354.825 -41.5511 355.244 -41.4834 354.504 -41.4673C350.15 -41.3668 345.586 -40.4376 341.884 -38.2602C341.29 -37.9078 341.874 -38.3635 341.451 -38.1087C338.419 -36.3001 335.934 -33.2642 334.42 -30.281C333.407 -28.2212 333.642 -29.0431 333.072 -27.9841C332.987 -27.841 332.542 -26.4865 332.447 -26.4292C332.188 -26.302 332.173 -27.0505 331.873 -26.8364C331.818 -26.8068 331.511 -25.6313 331.475 -25.6363C331.475 -25.6364 331.475 -25.6364 331.475 -25.6364C331.463 -25.6394 331.472 -25.7482 331.518 -26.0197C331.526 -26.1099 331.906 -27.5116 331.991 -27.8466C332.046 -28.0855 331.82 -27.699 331.952 -28.1798C332.093 -28.6724 332.323 -29.0946 332.641 -29.9239C332.96 -30.7126 332.689 -30.4437 333.463 -31.9221ZM485.669 243.09C485.924 241.849 485.861 241.646 485.636 242.999C485.626 243.065 485.656 243.154 485.669 243.09ZM547.701 362.254C546.044 362.049 544.913 361.903 546.077 362.071C547.243 362.234 548.207 362.314 547.701 362.254ZM564.994 362.888C563.042 362.94 562.737 362.977 564.826 362.911C564.948 362.907 565.109 362.885 564.994 362.888ZM335.577 -33.0233C335.56 -33.0163 334.995 -32.1463 334.989 -32.1176C334.773 -31.6052 335.893 -33.3416 335.577 -33.0233ZM582.091 361.214C581.493 361.309 579.756 361.567 580.506 361.461C581.111 361.377 582.839 361.099 582.091 361.214ZM504.615 179.215C504.624 179.197 504.913 178.515 504.898 178.524C504.846 178.557 504.455 179.511 504.615 179.215ZM610.319 353.841C606.206 355.359 603.785 356.118 608.207 354.609C609.023 354.322 606.448 355.226 607.484 354.864C609.395 354.195 610.631 353.735 612.467 353.013C612.804 352.884 610.558 353.758 610.312 353.843C610.314 353.843 610.317 353.842 610.319 353.841ZM485.917 242.394C485.923 242.37 486.112 241.366 486.116 241.341C486.188 240.791 485.805 242.814 485.917 242.394ZM522.577 139.922C522.607 139.87 523.589 137.724 523.621 137.643C524.063 136.485 522.068 140.847 522.577 139.922ZM485.783 310.756C486.071 311.759 486.475 313.144 486.713 313.997C486.386 312.935 486.052 311.768 485.783 310.756Z" fill="white"/>
<path d="M-77.5 108.5C-67.8291 131.183 -49.1177 148.603 -30.4737 164.222C7.49045 193.613 51.146 222.36 100.512 223.149C161.962 215.597 145.853 120.988 207.8 116.59C219.207 116.363 229.729 121.847 238.613 128.683C247.049 135.388 258.809 143.032 269.632 136.774C286.333 129.02 283.967 108.026 283.958 92.7105C283.506 76.4313 283.452 59.9408 287.36 44.0873C294.408 8.35597 327.064 -29.5281 365.951 -18.2634C403.676 -6.85153 417.629 36.6629 418.476 73.0174C419.209 89.2611 419.633 105.346 425.053 120.786C426.535 124.459 428.559 128.457 432.353 130.466C436.329 132.54 440.84 131.009 444.394 129.291C448.07 127.545 451.397 125.204 455.085 123.905C456.896 123.285 458.881 123.131 460.27 124.276C461.672 125.42 462.387 127.176 462.962 129.16C464.857 136.817 463.955 145.023 462.93 152.915C461.046 179.083 435.5 195.093 431.855 221.372C423.672 257.094 447.499 296.938 483.586 304.936C520.196 313.962 555.218 289.472 575.685 260.738C617.478 200.959 629.507 128.03 636.913 56.5818C639.135 32.6964 640.446 8.22144 641 -16.9787C640.333 -16.9929 639.667 -17.007 639 -17.0212C638.481 8.13821 637.205 32.5697 635.021 56.4069C627.746 127.7 615.76 200.477 574.39 259.785C554.118 288.314 519.701 312.299 483.926 303.514C448.621 295.746 425.154 256.746 433.145 221.628C436.544 195.942 462.124 179.832 464.13 153.084C465.144 145.102 466.089 136.896 464.098 128.84C463.475 126.75 462.765 124.819 460.993 123.354C459.167 121.858 456.63 122.133 454.718 122.801C450.763 124.211 447.488 126.554 443.896 128.258C440.409 129.956 436.297 131.265 432.868 129.459C429.534 127.728 427.523 123.958 426.089 120.377C420.76 105.291 420.267 89.1665 419.524 72.9825C418.61 36.4567 404.592 -7.52549 366.193 -19.1255C326.558 -30.5076 293.652 8.02736 286.64 43.9127C282.727 59.8792 282.81 76.4504 283.283 92.7263C283.34 108.099 285.585 128.74 269.369 136.226C258.814 142.326 247.485 134.969 238.946 128.23C230.044 121.392 219.339 115.822 207.8 116.074C145.13 120.888 161.57 215.428 100.489 222.851C51.3176 222.143 7.56352 193.476 -30.4105 164.145C-49.0697 148.556 -67.7987 131.168 -77.5 108.5Z" fill="white"/>
<path d="M569.717 337.552C570.867 338.342 572.496 339.445 573.884 340.359C579.742 344.182 581.9 345.493 587.332 348.666C595.225 353.701 620.336 365.214 620.5 365C620.5 365 620.497 364.999 620.492 364.997C620.4 364.961 618.21 364.043 617.89 363.905C617.57 363.766 617.796 363.879 614.737 362.546C610.312 360.682 599.833 355.572 597.558 354.32C595.981 353.499 594.12 352.511 592.101 351.402C585.724 347.868 582.435 345.891 576.919 342.411C574.686 340.984 572.496 339.536 570.348 338.069C567.485 336.139 563.303 333.124 561.629 331.869C560.249 330.843 559.446 330.242 558.039 329.161C556.475 327.959 554.039 326.05 551.244 323.746C546.698 319.969 545.863 319.211 543.223 316.871C540.436 314.389 536.265 310.464 532.922 307.102C532.504 306.685 532.089 306.268 531.676 305.85C531.968 306.153 532.262 306.455 532.557 306.758C530.901 305.088 530.172 304.324 528.664 302.74C526.888 300.864 526.033 299.942 524.844 298.635C523.883 297.577 522.605 296.135 521.408 294.759C519.668 292.748 520.028 293.174 519.092 292.075C518.675 291.672 511.989 283.369 511.687 282.879C508.908 279.217 508.712 278.901 506.591 275.938C500.737 267.697 495.289 258.837 490.926 250.583C488.977 246.909 487.041 242.972 485.338 239.204C488.074 245.128 482.193 231.886 484.316 236.881C482.489 232.653 481.257 229.629 479.752 225.457C478.816 222.81 478.182 220.962 477.008 217.03C475.563 212.193 474.368 206.922 473.847 203.525C473.619 202.09 473.506 200.948 473.462 200.323C472.618 191.926 473.439 184.541 473.619 181.544C473.799 179.362 474.52 173.847 474.896 171.417C475.132 169.111 478.23 151.677 478.779 148.831C479.302 145.978 480.195 140.999 480.595 138.581C481.091 135.567 481.383 133.44 482.244 128.052C483.064 121.766 483.324 119.504 483.655 113.622C483.703 112.554 483.72 112.437 483.739 111.82C483.775 110.531 483.795 108.37 483.697 106.054C483.536 102.315 483.195 100.162 483.215 100.595C482.876 98.1116 482.366 95.6906 481.597 93.3447C481.336 92.5057 481.049 91.6974 480.725 90.8984C480.193 89.6625 479.601 88.5154 478.894 87.3813C479.323 88.0296 478.375 86.3351 477.257 84.9799C476.15 83.6127 474.982 82.5785 476.025 83.6512C475.359 82.9459 474.642 82.2819 473.871 81.6611C470.912 79.2349 466.971 78.4298 463.184 78.6199C463.514 78.5526 460.867 78.6549 458.326 79.2251C455.751 79.7651 453.329 80.6011 453.78 80.4819C453.263 80.6403 452.743 80.8069 452.22 80.9812C447.641 82.4965 443.569 84.2885 438.21 86.7235C432.855 89.176 433.359 88.94 431.705 89.6476C430.438 90.2332 429.193 90.8023 427.913 91.3722C421.207 94.0395 422.646 94.7999 410.29 96.6261C408.399 96.642 404.402 96.0885 402.32 92.6686C400.265 89.4598 399.929 85.1782 399.858 81.9433C399.856 81.7646 399.853 81.6233 399.851 81.5002C399.843 81.0928 399.832 80.9053 399.815 80.1118C399.828 77.6449 399.311 71.3786 399.238 71.6275C399.013 69.4613 398.707 67.321 398.303 65.1823C397.939 63.4005 397.544 61.7687 397.042 60.0065C397.026 60.0203 397.01 60.034 396.995 60.0478C396.177 56.6331 394.018 51.3321 392.703 48.9443C392.443 48.455 392.424 48.316 391.578 46.8459C390.6 45.1043 388.439 42.0258 386.87 40.2746C386.228 39.5863 385.571 38.9296 384.9 38.3064C381.825 35.3674 380.591 34.5067 378.5 33.1453C378.234 32.6873 370.728 29.3506 370.218 29.4716C366.707 28.8461 367.72 27.9431 357.306 28.5396C355.456 28.7701 353.989 29.052 352.354 29.499C349.354 29.9967 341.49 34.3424 341.062 34.9784C337.866 36.7599 331.212 43.8014 329.725 46.2675C329.238 46.9631 329.055 47.0682 327.634 49.3158C327.187 50.0333 326.479 51.2326 325.746 52.6306C324.651 54.7014 323.54 57.0605 322.872 58.5558C321.705 61.1757 321.298 62.1559 320.83 63.3426C320.386 64.4892 320.022 65.5629 319.487 67.127C317.808 72.0515 316.609 76.6161 315.76 80.6454C314.54 86.4672 313.909 91.7027 313.353 96.65C313.199 97.8767 313.04 99.08 312.897 100.371C311.185 116.246 309.821 134.701 303.021 149.535C301.663 152.68 298.96 157.75 296.246 161.667C293.045 166.474 289.154 168.854 291.499 167.275C290.562 168.188 285.936 171.649 280.225 172.031C274.609 172.584 269.051 170.873 267.338 170.376C263.842 169.316 261.216 168.284 258.6 167.148C250.792 163.665 245.572 160.634 236.407 155.789C234.039 154.536 231.465 153.265 230.055 152.554C228.351 151.693 226.55 150.737 224.297 149.694C219.014 147.1 208.642 143.428 202.98 143.217C201.961 143.141 201.628 143.057 200.154 143.033C197.021 142.974 193.701 143.607 191.654 144.353C189.96 144.949 189.087 145.41 189.574 145.278C182.809 147.979 177.728 152.816 173.706 158.219C164.59 169.552 157.079 195.149 152.933 207.002C150.226 214.497 150.707 214.434 145.648 225.107C144.47 227.424 143.21 229.718 141.433 232.383C137.338 238.617 131.845 243.249 126.526 245.501C122.595 247.047 118.889 247.487 115.342 247.421C111.828 247.346 108.62 246.81 105.681 245.834C104.966 245.66 104.266 245.465 103.576 245.247C102.605 244.88 101.673 244.476 100.753 244.024C100.482 243.847 100.215 243.667 99.9516 243.484C93.3563 240.161 87.0381 233.118 83.4457 228.21C77.5208 219.907 62.7269 197.705 53.1212 194.274C49.2348 192.224 48.4243 192.134 46.5378 191.34C46.2484 191.226 45.9306 191.101 45.5656 190.959C44.4748 190.627 43.3678 190.326 42.2648 190.059C41.5641 189.922 40.8439 189.793 40.1519 189.684C33.772 188.241 25.9393 187.749 19.7268 188.049C8.28558 188.333 -8.48824 192.217 -19.3859 195.774C-22.1693 196.643 -25.5669 197.718 -28.2135 198.686C-32.0677 200.108 -32.9174 200.579 -37.7821 202.539C-46.0876 205.815 -61.328 212.802 -68.8152 216.77C-71.0367 217.923 -72.1157 218.558 -73.6109 219.358C-80.0542 222.816 -85.2626 225.72 -91.2912 229.311C-97.8289 232.944 -97.386 232.488 -99.5041 233.513C-101.064 234.265 -105.893 236.789 -106.637 237.096C-107.153 237.303 -105.471 236.133 -106.179 236.446C-98.4858 231.668 -95.2313 229.87 -88.7485 226.32C-77.0391 219.646 -65.0164 213.312 -52.7184 207.64C-51.5724 207.171 -50.4353 206.712 -49.307 206.264C-49.307 206.264 -49.3069 206.264 -49.3069 206.264C-44.4934 204.182 -42.5547 203.234 -39.9593 202.124C-20.6989 193.941 17.7889 180.3 46.8747 190.34C53.9592 192.719 59.6615 196.835 63.9176 200.939C69.0447 205.016 80.5947 222.335 83.1075 225.844C83.7539 226.766 83.8792 227.057 84.5989 228.022C90.8921 236.529 99.3199 244.332 110.007 245.847C111.769 246.149 113.517 246.308 115.36 246.348C137.844 247.325 146.625 221.811 152.912 203.782C161.105 181.516 166.653 152.874 191.382 143.545C228.391 135.277 254.932 181.782 289.597 167.696C291.915 166.034 293.876 163.918 295.67 161.277C301.031 153.513 304.935 143.911 306.976 135.779C308.107 131.262 308.593 129.371 309.506 123.311C309.535 123.251 309.565 123.19 309.594 123.129C310.36 117.833 310.686 114.426 311.319 108.453C311.808 103.423 313.311 90.0994 314.202 85.6994C314.616 83.4052 314.49 84.2735 314.904 82.1431C315.576 78.4995 317.458 70.7714 319.229 65.9625C320.578 61.9875 323.346 55.7998 325.235 52.3593C325.438 51.9776 325.627 51.6306 325.798 51.3224C331.823 40.1082 343.294 29.487 357.267 27.9175C361.059 27.3714 365.964 27.971 367.121 28.2389C369.404 28.6758 370.084 28.8599 371.574 29.3249C379.428 31.3936 388.874 40.2859 392.355 47.2481C398.115 57.4351 400.246 69.5413 400.27 81.4993C400.299 85.0541 400.601 88.558 402.137 91.6174C403.59 94.7431 407.062 96.3858 410.481 96.2116C417.378 95.8729 423.701 92.7582 429.866 90.0723C441.024 85.8434 460.198 72.1746 474.13 81.3376C476.981 83.6143 478.942 86.4022 480.229 88.9729C481.574 91.8623 481.186 91.0736 482.05 93.6119C482.896 96.4106 483.151 98.0049 483.378 99.361C485.386 108.836 482.567 129.788 480.908 138.561C480.616 140.246 480.382 141.461 480.204 142.465C480.114 142.972 479.92 144.13 479.632 145.726C477.116 159.824 474.935 170.09 473.716 184.057C473.233 190.31 473.075 196.933 474.118 203.481C477.87 225.011 487.977 246.471 499.388 264.809C502.636 269.994 505.068 273.477 505.553 274.184C506.647 275.748 507.347 276.746 509.62 279.83C517.178 290.21 528.615 303.078 537.486 311.421C541.787 315.565 548.048 321.072 552.604 324.753C556.254 327.817 565.168 334.449 566.915 335.61C567.96 336.344 568.448 336.679 569.717 337.552ZM475.868 212.863C476.049 213.693 474.066 205.085 474.769 208.308C474.903 209.03 475.796 212.673 475.868 212.863ZM310.309 121.707C310.346 121.631 310.384 121.554 310.421 121.478C310.574 120.326 310.716 119.17 310.85 118.018C310.753 118.663 310.653 119.309 310.55 119.954C310.472 120.539 310.392 121.124 310.309 121.707Z" fill="white"/>
</g>
<defs>
<clipPath id="clip0_4127_3198">
<rect width="335" height="333" rx="15" fill="white"/>
</clipPath>
</defs>
</svg>
