<svg width="44" height="44" viewBox="0 0 44 44" fill="none" xmlns="http://www.w3.org/2000/svg">
<path d="M13.9453 2.502C14.1327 2.18911 14.4368 1.9635 14.7905 1.87479C15.1443 1.78609 15.5189 1.84156 15.8317 2.029C16.1446 2.21644 16.3703 2.5205 16.459 2.87429C16.5477 3.22807 16.4922 3.60261 16.3047 3.9155L9.30325 15.5837H34.6967L27.6925 3.9155C27.5051 3.60261 27.4496 3.22807 27.5383 2.87429C27.627 2.5205 27.8526 2.21644 28.1655 2.029C28.4784 1.84156 28.8529 1.78609 29.2067 1.87479C29.5605 1.9635 29.8646 2.18911 30.052 2.502L37.9032 15.5837H42.625C42.9897 15.5837 43.3394 15.7286 43.5973 15.9865C43.8551 16.2443 44 16.5941 44 16.9587V22.4587C44 22.8234 43.8551 23.1732 43.5973 23.431C43.3394 23.6889 42.9897 23.8337 42.625 23.8337H41.25V37.5837C41.25 39.0424 40.6705 40.4414 39.6391 41.4728C38.6076 42.5043 37.2087 43.0837 35.75 43.0837H8.25C6.79131 43.0837 5.39236 42.5043 4.36091 41.4728C3.32946 40.4414 2.75 39.0424 2.75 37.5837V23.8337H1.375C1.01033 23.8337 0.660591 23.6889 0.402728 23.431C0.144866 23.1732 0 22.8234 0 22.4587V16.9587C0 16.5941 0.144866 16.2443 0.402728 15.9865C0.660591 15.7286 1.01033 15.5837 1.375 15.5837H6.09675L13.9453 2.502ZM9.625 27.9587C9.625 27.5941 9.48013 27.2443 9.22227 26.9865C8.96441 26.7286 8.61467 26.5837 8.25 26.5837C7.88533 26.5837 7.53559 26.7286 7.27773 26.9865C7.01987 27.2443 6.875 27.5941 6.875 27.9587V36.2087C6.875 36.5734 7.01987 36.9232 7.27773 37.181C7.53559 37.4389 7.88533 37.5837 8.25 37.5837C8.61467 37.5837 8.96441 37.4389 9.22227 37.181C9.48013 36.9232 9.625 36.5734 9.625 36.2087V27.9587ZM16.5 27.9587C16.5 27.5941 16.3551 27.2443 16.0973 26.9865C15.8394 26.7286 15.4897 26.5837 15.125 26.5837C14.7603 26.5837 14.4106 26.7286 14.1527 26.9865C13.8949 27.2443 13.75 27.5941 13.75 27.9587V36.2087C13.75 36.5734 13.8949 36.9232 14.1527 37.181C14.4106 37.4389 14.7603 37.5837 15.125 37.5837C15.4897 37.5837 15.8394 37.4389 16.0973 37.181C16.3551 36.9232 16.5 36.5734 16.5 36.2087V27.9587ZM23.375 27.9587C23.375 27.5941 23.2301 27.2443 22.9723 26.9865C22.7144 26.7286 22.3647 26.5837 22 26.5837C21.6353 26.5837 21.2856 26.7286 21.0277 26.9865C20.7699 27.2443 20.625 27.5941 20.625 27.9587V36.2087C20.625 36.5734 20.7699 36.9232 21.0277 37.181C21.2856 37.4389 21.6353 37.5837 22 37.5837C22.3647 37.5837 22.7144 37.4389 22.9723 37.181C23.2301 36.9232 23.375 36.5734 23.375 36.2087V27.9587ZM30.25 27.9587C30.25 27.5941 30.1051 27.2443 29.8473 26.9865C29.5894 26.7286 29.2397 26.5837 28.875 26.5837C28.5103 26.5837 28.1606 26.7286 27.9027 26.9865C27.6449 27.2443 27.5 27.5941 27.5 27.9587V36.2087C27.5 36.5734 27.6449 36.9232 27.9027 37.181C28.1606 37.4389 28.5103 37.5837 28.875 37.5837C29.2397 37.5837 29.5894 37.4389 29.8473 37.181C30.1051 36.9232 30.25 36.5734 30.25 36.2087V27.9587ZM37.125 27.9587C37.125 27.5941 36.9801 27.2443 36.7223 26.9865C36.4644 26.7286 36.1147 26.5837 35.75 26.5837C35.3853 26.5837 35.0356 26.7286 34.7777 26.9865C34.5199 27.2443 34.375 27.5941 34.375 27.9587V36.2087C34.375 36.5734 34.5199 36.9232 34.7777 37.181C35.0356 37.4389 35.3853 37.5837 35.75 37.5837C36.1147 37.5837 36.4644 37.4389 36.7223 37.181C36.9801 36.9232 37.125 36.5734 37.125 36.2087V27.9587Z" fill="url(#paint0_linear_4028_2545)"/>
<defs>
<linearGradient id="paint0_linear_4028_2545" x1="44" y1="22.1761" x2="5.53596e-07" y2="22.1761" gradientUnits="userSpaceOnUse">
<stop stop-color="#5BD0F1"/>
<stop offset="0.495192" stop-color="#2DADD0"/>
<stop offset="1" stop-color="#1B6AB3"/>
</linearGradient>
</defs>
</svg>
