<svg width="24" height="25" viewBox="0 0 24 25" fill="none" xmlns="http://www.w3.org/2000/svg">
<path fill-rule="evenodd" clip-rule="evenodd" d="M9.51334 20.525C9.03655 20.525 8.64854 20.912 8.64854 21.3898C8.64854 21.8676 9.03655 22.2546 9.51334 22.2546C9.99112 22.2546 10.3781 21.8676 10.3781 21.3898C10.3781 20.912 9.99112 20.525 9.51334 20.525ZM6.91895 21.3898C6.91895 19.9574 8.08097 18.7954 9.51334 18.7954C10.9467 18.7954 12.1077 19.9574 12.1077 21.3898C12.1077 22.8221 10.9467 23.9841 9.51334 23.9841C8.08097 23.9841 6.91895 22.8221 6.91895 21.3898Z" fill="white"/>
<path fill-rule="evenodd" clip-rule="evenodd" d="M17.5846 20.525C17.1068 20.525 16.7198 20.912 16.7198 21.3898C16.7198 21.8676 17.1068 22.2546 17.5846 22.2546C18.0623 22.2546 18.4494 21.8676 18.4494 21.3898C18.4494 20.912 18.0623 20.525 17.5846 20.525ZM14.9902 21.3898C14.9902 19.9574 16.1523 18.7954 17.5846 18.7954C19.0169 18.7954 20.179 19.9574 20.179 21.3898C20.179 22.8221 19.0169 23.9841 17.5846 23.9841C16.1523 23.9841 14.9902 22.8221 14.9902 21.3898Z" fill="white"/>
<path fill-rule="evenodd" clip-rule="evenodd" d="M0 2.36478C0 1.88698 0.38806 1.5 0.864787 1.5H2.25385C3.19322 1.5 4.0094 2.1486 4.22018 3.06417L4.65797 4.95916H20.8264C22.9505 4.95916 24.4748 7.00653 23.8641 9.04095L21.7885 15.9593C21.3865 17.3008 20.152 18.2197 18.7509 18.2197H8.46531C6.98864 18.2197 5.70767 17.2003 5.37581 15.7615L2.53487 3.45323C2.5046 3.32243 2.38786 3.22947 2.25382 3.22947H0.864762C0.388035 3.22947 0 2.8426 0 2.36478ZM5.05674 6.68873L7.0609 15.3723C7.21115 16.0263 7.79376 16.4901 8.46514 16.4901H18.7507C19.3874 16.4901 19.9484 16.0718 20.1312 15.4621L22.2066 8.54377C22.4844 7.61954 21.7926 6.68879 20.8262 6.68879L5.05674 6.68873Z" fill="white"/>
<path d="M13.5029 8.52979V14.3809" stroke="white" stroke-width="1.25382" stroke-linecap="round"/>
<path d="M16.4283 11.4553H10.5771" stroke="white" stroke-width="1.25382" stroke-linecap="round"/>
</svg>
