<svg width="44" height="44" viewBox="0 0 44 44" fill="none" xmlns="http://www.w3.org/2000/svg">
<path fill-rule="evenodd" clip-rule="evenodd" d="M21.542 0C19.6445 0 16.4738 0.72875 13.49 1.54C10.4375 2.365 7.36026 3.34125 5.55076 3.9325C4.79421 4.18234 4.12348 4.64053 3.61563 5.25443C3.10778 5.86833 2.7834 6.61303 2.67976 7.403C1.04076 19.7148 4.84401 28.8393 9.45851 34.8755C11.4161 37.457 13.7492 39.7308 16.3803 41.6213C17.4418 42.372 18.4263 42.9468 19.2623 43.34C20.0323 43.703 20.86 44 21.542 44C22.224 44 23.049 43.703 23.8218 43.34C24.8306 42.8521 25.795 42.277 26.7038 41.6213C29.3348 39.7308 31.6679 37.457 33.6255 34.8755C38.24 28.8393 42.0433 19.7148 40.4043 7.403C40.3011 6.61254 39.9769 5.86725 39.4691 5.25282C38.9612 4.6384 38.2902 4.1798 37.5333 3.92975C34.9063 3.06903 32.2591 2.2713 29.594 1.53725C26.6103 0.7315 23.4395 0 21.542 0ZM27.4435 14.1515C27.7017 13.8933 28.0519 13.7483 28.417 13.7483C28.7821 13.7483 29.1323 13.8933 29.3905 14.1515C29.6487 14.4097 29.7937 14.7599 29.7937 15.125C29.7937 15.4901 29.6487 15.8403 29.3905 16.0985L21.1405 24.3485C21.0128 24.4765 20.861 24.5781 20.694 24.6475C20.527 24.7168 20.3479 24.7525 20.167 24.7525C19.9861 24.7525 19.8071 24.7168 19.64 24.6475C19.473 24.5781 19.3212 24.4765 19.1935 24.3485L15.0685 20.2235C14.9407 20.0957 14.8393 19.9439 14.7701 19.7769C14.7009 19.6098 14.6653 19.4308 14.6653 19.25C14.6653 19.0692 14.7009 18.8902 14.7701 18.7231C14.8393 18.5561 14.9407 18.4043 15.0685 18.2765C15.1963 18.1487 15.3481 18.0472 15.5152 17.9781C15.6822 17.9089 15.8612 17.8733 16.042 17.8733C16.2228 17.8733 16.4018 17.9089 16.5689 17.9781C16.7359 18.0472 16.8877 18.1487 17.0155 18.2765L20.167 21.4308L27.4435 14.1515Z" fill="url(#paint0_linear_4028_1348)"/>
<defs>
<linearGradient id="paint0_linear_4028_1348" x1="40.792" y1="21.6986" x2="2.29199" y2="21.6986" gradientUnits="userSpaceOnUse">
<stop stop-color="#5BD0F1"/>
<stop offset="0.495192" stop-color="#2DADD0"/>
<stop offset="1" stop-color="#1B6AB3"/>
</linearGradient>
</defs>
</svg>
