<svg width="45" height="44" viewBox="0 0 45 44" fill="none" xmlns="http://www.w3.org/2000/svg">
<path d="M18.375 3.6665C17.281 3.6665 16.2318 4.1011 15.4582 4.87469C14.6846 5.64828 14.25 6.69749 14.25 7.7915V9.1665H4.625C3.53098 9.1665 2.48177 9.6011 1.70818 10.3747C0.934597 11.1483 0.5 12.1975 0.5 13.2915V17.0975L21.4385 22.68C22.134 22.8652 22.866 22.8652 23.5615 22.68L44.5 17.0975V13.2915C44.5 12.1975 44.0654 11.1483 43.2918 10.3747C42.5182 9.6011 41.469 9.1665 40.375 9.1665H30.75V7.7915C30.75 6.69749 30.3154 5.64828 29.5418 4.87469C28.7682 4.1011 27.719 3.6665 26.625 3.6665H18.375ZM18.375 6.4165H26.625C26.9897 6.4165 27.3394 6.56137 27.5973 6.81923C27.8551 7.07709 28 7.42683 28 7.7915V9.1665H17V7.7915C17 7.42683 17.1449 7.07709 17.4027 6.81923C17.6606 6.56137 18.0103 6.4165 18.375 6.4165Z" fill="url(#paint0_linear_4028_2128)"/>
<path d="M0.5 35.2915C0.5 36.3855 0.934597 37.4347 1.70818 38.2083C2.48177 38.9819 3.53098 39.4165 4.625 39.4165H40.375C41.469 39.4165 42.5182 38.9819 43.2918 38.2083C44.0654 37.4347 44.5 36.3855 44.5 35.2915V19.754L22.8547 25.5208C22.6223 25.5828 22.3777 25.5828 22.1452 25.5208L0.5 19.754V35.2915Z" fill="url(#paint1_linear_4028_2128)"/>
<defs>
<linearGradient id="paint0_linear_4028_2128" x1="44.5" y1="21.2966" x2="0.500001" y2="21.2966" gradientUnits="userSpaceOnUse">
<stop stop-color="#5BD0F1"/>
<stop offset="0.495192" stop-color="#2DADD0"/>
<stop offset="1" stop-color="#1B6AB3"/>
</linearGradient>
<linearGradient id="paint1_linear_4028_2128" x1="44.5" y1="21.2966" x2="0.500001" y2="21.2966" gradientUnits="userSpaceOnUse">
<stop stop-color="#5BD0F1"/>
<stop offset="0.495192" stop-color="#2DADD0"/>
<stop offset="1" stop-color="#1B6AB3"/>
</linearGradient>
</defs>
</svg>
