<svg width="44" height="44" viewBox="0 0 44 44" fill="none" xmlns="http://www.w3.org/2000/svg">
<path d="M8.6005 44V38.4686H2.94336V31.9314H8.6005V28.2857H2.94336V20.4914H8.6005V0H24.2519C27.8976 0 30.9148 0.586667 33.3034 1.76C35.7338 2.93333 37.5567 4.58857 38.7719 6.72571C40.0291 8.82095 40.6576 11.2933 40.6576 14.1429C40.6576 16.9924 40.0291 19.4857 38.7719 21.6229C37.5567 23.7181 35.7338 25.3524 33.3034 26.5257C30.9148 27.699 27.8976 28.2857 24.2519 28.2857H18.0291V31.9314H31.8576V38.4686H18.0291V44H8.6005ZM18.0291 20.4914H23.3719C26.1376 20.4914 28.1281 19.9467 29.3434 18.8571C30.6005 17.7257 31.2291 16.1543 31.2291 14.1429C31.2291 12.1314 30.6424 10.581 29.4691 9.49143C28.2957 8.36 26.2634 7.79429 23.3719 7.79429H18.0291V20.4914Z" fill="url(#paint0_linear_4028_446)"/>
<defs>
<linearGradient id="paint0_linear_4028_446" x1="40.6576" y1="21.6986" x2="2.94336" y2="21.6986" gradientUnits="userSpaceOnUse">
<stop stop-color="#5BD0F1"/>
<stop offset="0.495192" stop-color="#2DADD0"/>
<stop offset="1" stop-color="#1B6AB3"/>
</linearGradient>
</defs>
</svg>
