<svg width="18" height="13" viewBox="0 0 18 13" fill="none" xmlns="http://www.w3.org/2000/svg">
<path d="M6.80077 2.62651H2.44635C1.77637 2.62651 1.21315 3.16371 1.21315 3.80273V9.17064C1.21315 9.8097 1.77637 10.3469 2.44635 10.3469H6.81247L6.66552 11.1137H2.44635C1.32099 11.1137 0.40918 10.245 0.40918 9.1706V3.80269C0.40918 2.72932 1.31992 1.85962 2.44635 1.85962H7.37808L6.80077 2.62651Z" fill="#18202D"/>
<path d="M9.74902 11.1137H14.345C15.4714 11.1137 16.3823 10.244 16.3562 9.1706V8.17406H16.7569C17.2395 8.17406 17.6153 7.81565 17.5881 7.35535V5.59201C17.5881 5.15664 17.2123 4.7992 16.7569 4.7992H16.3562V3.80269C16.3562 2.7283 15.4443 1.85962 14.319 1.85962H10.4907L10.3438 2.62651H14.319C14.989 2.62651 15.5522 3.16371 15.5522 3.80273V9.17064C15.5522 9.8097 14.989 10.3469 14.319 10.3469H10.3263L9.74902 11.1137Z" fill="#18202D"/>
<path d="M9.66495 1.1898C9.71637 0.921492 9.3504 0.773195 9.18361 0.994754L4.7334 6.90636C4.60609 7.07548 4.73278 7.31107 4.95107 7.31107H7.85394C8.08123 7.31107 8.26594 7.48824 8.26594 7.70621C8.26594 7.74187 8.26111 7.77698 8.25195 7.80953L7.50028 11.7318C7.44886 12.0001 7.81479 12.1484 7.98158 11.9268L12.4318 6.01522C12.5591 5.84614 12.4324 5.61055 12.2141 5.61055H9.31129C9.084 5.61055 8.89929 5.43338 8.89929 5.21536C8.89929 5.17971 8.90412 5.1446 8.91328 5.11205L9.66495 1.1898Z" fill="#18202D"/>
</svg>
