<svg width="18" height="13" viewBox="0 0 18 13" fill="none" xmlns="http://www.w3.org/2000/svg">
<path fill-rule="evenodd" clip-rule="evenodd" d="M4.8298 4.04199C4.58875 3.80466 4.60375 3.41728 4.88013 3.21945C6.2477 2.24063 7.93818 1.66138 9.76593 1.66138C14.3064 1.66138 18 5.23613 18 9.63131C18 9.94581 17.7368 10.2005 17.4118 10.2005H16.2355C15.9106 10.2005 15.6474 9.94581 15.6474 9.63131C15.6474 9.31681 15.9106 9.06207 16.2355 9.06207H16.8002C16.6752 7.60557 16.0716 6.28136 15.149 5.22684L14.7571 5.60536C14.6424 5.71637 14.4917 5.77188 14.341 5.77188C14.1903 5.77188 14.0396 5.71637 13.9249 5.60536C13.6948 5.38267 13.6948 5.02332 13.9249 4.80062L14.316 4.42207C13.2265 3.52841 11.8583 2.94777 10.3541 2.82681V3.36903C10.3541 3.68353 10.0909 3.93823 9.76593 3.93823C9.441 3.93823 9.17782 3.68353 9.17782 3.36903V2.82681C7.8669 2.93223 6.6592 3.38734 5.64928 4.09371C5.39748 4.26979 5.04765 4.25648 4.8298 4.04199Z" fill="#18202D"/>
<path d="M6.71741 9.63028C6.71741 9.94478 6.45423 10.1995 6.12926 10.1995H1.65943C1.33448 10.1995 1.07129 9.94478 1.07129 9.63028C1.07129 9.31577 1.33448 9.06104 1.65943 9.06104H6.12926C6.45423 9.06104 6.71741 9.31577 6.71741 9.63028Z" fill="#18202D"/>
<path d="M5.64613 7.77603C5.64613 8.09053 5.38295 8.34527 5.05797 8.34527H0.588141C0.263186 8.34527 0 8.09053 0 7.77603C0 7.46153 0.263186 7.20679 0.588141 7.20679H5.05797C5.38295 7.20679 5.64613 7.46153 5.64613 7.77603Z" fill="#18202D"/>
<path d="M7.78868 5.90831C7.78868 6.22282 7.5255 6.47755 7.20056 6.47755H2.73073C2.40576 6.47755 2.14258 6.22282 2.14258 5.90831C2.14258 5.59381 2.40576 5.33911 2.73073 5.33911H7.20056C7.5255 5.33911 7.78868 5.59381 7.78868 5.90831Z" fill="#18202D"/>
<path d="M11.0138 10.8385C11.4953 10.3732 13.1207 7.54118 13.6089 6.68523C13.7354 6.46254 13.6949 6.18715 13.5097 6.00857C13.3244 5.82998 13.0406 5.79087 12.8105 5.91254C11.9261 6.38357 9.00087 7.95811 8.52 8.42426C7.83187 9.09023 7.83187 10.1732 8.52 10.8392C8.85157 11.1609 9.2949 11.3387 9.76615 11.3387C10.2374 11.3387 10.6807 11.1609 11.0138 10.8385Z" fill="#18202D"/>
</svg>
