<svg width="18" height="13" viewBox="0 0 18 13" fill="none" xmlns="http://www.w3.org/2000/svg">
<path d="M12.3728 0.607846L12.3721 0.608047L11.8296 0.904377C11.4382 1.11816 11.3041 1.59172 11.5301 1.96203L14.3922 6.65192C14.6181 7.02214 15.1184 7.14899 15.5097 6.93531L16.0685 6.63017C16.2573 6.52697 16.3855 6.35866 16.4386 6.17033C16.4918 5.98267 16.4707 5.77565 16.3616 5.59635L13.4782 0.872256C13.3685 0.694904 13.1912 0.575585 12.9956 0.525924C12.7973 0.475644 12.5793 0.496234 12.3735 0.607644L12.3728 0.607846ZM5.70582 8.26967C5.9275 8.63269 6.41817 8.75699 6.80189 8.54738L12.2153 5.59035C12.5991 5.38069 12.7306 4.91633 12.509 4.5532C12.2875 4.1901 11.7968 4.06565 11.413 4.27526L5.99946 7.23206C5.61549 7.44179 5.48401 7.90642 5.70582 8.26967ZM14.6827 0.837556C14.4241 0.97856 14.3354 1.29132 14.4847 1.53588L16.257 4.44005C16.4074 4.68659 16.7406 4.77098 17.0011 4.62853C17.1886 4.52405 17.3161 4.35636 17.3685 4.16997C17.4217 3.98231 17.3999 3.77463 17.2902 3.59471L15.7782 1.11552C15.6678 0.935593 15.4892 0.813696 15.2908 0.763389C15.0924 0.713086 14.8729 0.733722 14.6827 0.837556ZM3.51403 11.9955C3.78252 11.8488 3.87448 11.5239 3.71948 11.2698L1.96443 8.393C1.81055 8.14077 1.46969 8.05437 1.20316 8.20004C1.02115 8.30451 0.897767 8.46961 0.845956 8.65278C0.794149 8.83662 0.81392 9.03845 0.916852 9.21516C1.40562 10.0471 1.93051 10.9037 2.44585 11.7214C2.55628 11.8936 2.73079 12.0103 2.92371 12.0594C3.11594 12.1084 3.32793 12.0903 3.51403 11.9955ZM3.82244 6.17157C3.59642 5.80124 3.09594 5.67442 2.70462 5.88837L2.14733 6.19302C1.95715 6.29684 1.82899 6.46519 1.77582 6.65285C1.72264 6.84117 1.74446 7.04819 1.85421 7.22749L4.73431 11.9464C4.84407 12.1264 5.02198 12.2476 5.22035 12.2979C5.41463 12.347 5.62866 12.3282 5.81549 12.2309L6.38556 11.919C6.77665 11.7051 6.91055 11.2318 6.68465 10.8616L3.82244 6.17157Z" fill="#18202D"/>
</svg>
