<svg width="1600" height="373" viewBox="0 0 1600 373" fill="none" xmlns="http://www.w3.org/2000/svg">
<g clip-path="url(#clip0_628_5212)">
<path d="M1.11736 184.253C11.4455 182 24.926 179.402 35.213 177.633C38.4459 177.075 36.8147 177.414 39.0769 177.032C43.3803 176.309 47.4935 175.601 51.8064 174.94C53.2514 174.72 51.4654 175.084 52.9828 174.851C61.191 173.598 68.9965 172.455 77.3815 171.402C111.984 167.227 146.678 164.424 181.566 168.628C188.323 169.509 194.691 170.728 201.288 172.427C214.762 175.795 230.445 182.38 242.803 189.657C244.253 190.5 243.422 189.942 243.7 190.098C248.035 192.599 246.54 191.856 249.292 193.604C260.194 200.59 271.458 209.607 280.642 218.01C284.538 221.591 280.736 217.888 284.577 221.582C284.842 221.84 283.823 220.964 284.872 221.967C287.259 224.233 291.713 228.623 293.487 230.45C296.916 233.969 297.486 234.57 300.668 237.949C305.016 242.583 310.051 248.226 314.55 253.351C315.511 254.445 314.292 252.951 315.826 254.693C317.365 256.434 321.371 261.095 322.702 262.682C324.036 264.266 323.424 263.629 323.654 263.915C325.543 266.275 330.236 271.611 330.826 272.306C341.632 284.999 350.76 296.011 361.324 307.549C369.355 316.322 378.263 325.297 386.776 332.773C396.895 341.632 406.04 348.517 417.364 355.021C418.564 355.699 417.191 354.847 418.658 355.67C434.245 364.393 451.421 370.018 469.147 371.835C470.947 372.018 468.619 371.849 470.421 372.03C478.171 372.858 489.274 372.868 497.483 371.961C500.667 371.637 503.275 371.243 505.043 370.911C512.395 369.874 521.145 367.767 527.435 365.731C531.494 364.401 527.598 365.821 532.52 364.04C533.633 363.62 532.167 364.112 533.832 363.482C540.808 360.832 548.19 357.332 554.632 353.702C555.938 352.967 555.56 353.123 555.927 352.907C559.021 351.103 564.142 348.065 565.234 347.363C573.599 342.082 579.45 337.819 586.89 332.372C588.614 331.104 586.541 332.556 588.198 331.333C596.788 324.987 605.632 318.315 614.292 312.434C616.221 311.128 614.478 312.374 615.401 311.753C619.485 309.033 620.348 308.357 624.341 305.874C625.186 305.354 624.733 305.685 624.889 305.593C627.338 304.162 629.408 302.834 630.037 302.467C638.014 297.854 643.349 295.291 651.566 291.856C652.547 291.457 650.311 292.301 653.074 291.189C663.277 287.123 674.298 284.115 685.469 282.442C694.684 281.051 703.684 280.605 712.632 281.041C715.683 281.207 713.503 281.129 713.695 281.143C716.789 281.385 718.877 281.5 719.866 281.594C727.698 282.343 734.951 283.891 740.189 285.084C772.836 293.223 801.409 311.464 829.602 328.635C829.962 328.855 829.294 328.498 830.013 328.936C838.669 334.184 837.041 333.128 842.848 336.458C844.301 337.293 848.721 339.935 849.112 340.157C850.54 340.992 849.017 340.2 849.497 340.477C853.471 342.743 852.912 342.236 858.357 345.157C858.528 345.248 857.795 344.899 858.251 345.146C859.669 345.912 861.081 346.633 862.488 347.368C865.707 349.03 866.783 349.702 871.818 351.994C872.458 352.269 871.522 351.774 876.56 354C878.555 354.939 887.608 358.508 890.219 359.329C892.797 360.208 891.014 359.641 891.198 359.705C898.167 362.002 895.522 361.15 899.039 362.238C902.577 363.26 901.634 362.831 903.093 363.181C904.546 363.549 909.805 364.698 911.118 364.916C912.421 365.16 910.789 364.894 911.948 365.104C919.628 366.36 915.336 365.549 917.882 365.881C923.889 366.548 928.661 366.888 934.148 366.83C935.648 366.805 934.423 366.806 935.761 366.769C941.128 366.563 944.191 366.355 950.197 365.445C951.148 365.312 955.914 364.427 959.053 363.732C959.48 363.639 958.274 363.952 960.431 363.45C962.584 362.945 965.922 362.062 968.987 361.102C970.521 360.624 971.944 360.169 973.09 359.796C975.625 358.963 972.721 359.869 975.886 358.841C977.277 358.383 974.715 359.266 977.319 358.404C980.083 357.502 986.628 355.159 989.289 354.12C991.828 353.144 990.424 353.648 990.63 353.567C991.833 353.103 996.683 351.124 997.111 350.933C1018.57 342.161 1036.86 330.454 1054.35 316.201C1055.75 315.097 1054.8 315.808 1055.01 315.639C1059.77 311.865 1056.06 314.895 1059.41 312.293C1058.89 312.626 1060.86 311.071 1064.26 308.473C1065.91 307.221 1065 307.883 1065.14 307.767C1067.55 305.906 1069.33 304.682 1069.77 304.377C1071.41 303.237 1073.25 301.915 1074.38 301.184C1075.53 300.438 1072.91 302.223 1076.33 299.948C1077.29 299.294 1074.69 300.931 1077.32 299.202C1087 292.411 1107.08 283.451 1116.18 280.62C1125.07 277.611 1128.09 276.822 1133.33 275.364C1143.03 272.81 1139.37 273.748 1145.4 272.27C1146.9 271.914 1147.87 271.696 1148.48 271.564C1150.31 271.174 1148.8 271.566 1149.46 271.434C1150.33 271.263 1151.26 271.044 1152.33 270.837C1153.39 270.633 1151.09 271.106 1153.59 270.612C1156.08 270.088 1162.96 268.971 1163.85 268.861C1165.74 268.584 1162.62 268.88 1169.3 268.134C1169.69 268.094 1168.44 268.248 1169.92 268.096C1181.65 266.904 1193.95 266.865 1205.69 267.787C1207.3 267.915 1205.86 267.825 1206.8 267.901C1216.57 268.808 1213.08 268.47 1218.42 269.064C1217.22 268.985 1220.17 269.307 1227.53 270.498C1231.94 271.24 1231.18 271.096 1234.03 271.602C1234.89 271.752 1238 272.379 1238.56 272.485C1240.42 272.839 1237.51 272.147 1245.02 273.796C1245.35 273.87 1244.29 273.656 1245.43 273.911C1252.76 275.598 1253.66 275.779 1261.52 277.837C1267.7 279.456 1278.57 282.654 1285.5 284.84C1285.34 284.844 1291.88 286.885 1294.54 287.712C1299.02 289.158 1303.86 290.749 1308.18 292.189C1309.67 292.684 1308.68 292.374 1308.87 292.438C1311.74 293.418 1313.69 294.035 1314.66 294.356C1325.12 297.837 1333.62 300.731 1343.64 303.938C1343.99 304.051 1344.58 304.209 1347.25 305.086C1347.43 305.142 1344.11 304.103 1348.83 305.604C1353.54 307.107 1362.45 309.865 1369.07 311.721C1370.67 312.175 1374.72 313.285 1377.99 314.167C1378.42 314.284 1377.94 314.167 1378.57 314.337C1380.59 314.886 1381.71 315.146 1384.09 315.772C1386.48 316.394 1391.45 317.656 1398.24 319.079C1398.45 319.124 1400.06 319.445 1402.2 319.872C1405.61 320.56 1410.47 321.448 1414.06 322.016C1415.77 322.289 1414.68 322.102 1414.97 322.149C1426.53 323.902 1434.82 324.812 1447.34 325.228C1449.63 325.311 1456.24 325.352 1460.68 325.186C1463.94 325.071 1462.79 325.142 1465 325.042C1466.11 324.98 1468.05 324.895 1471.76 324.445C1476.24 323.872 1481.91 322.893 1489.72 320.598C1504.83 315.985 1517.86 309.047 1530.85 300.026C1531.43 299.621 1533.27 298.303 1534.61 297.317C1536.61 295.848 1537.69 295.022 1539.1 293.935C1544.96 289.373 1550.11 284.917 1555.34 280.033C1557.33 278.169 1556.64 278.831 1558.98 276.58C1561.3 274.32 1562.83 272.795 1565.89 269.637C1568.19 267.254 1570.48 264.834 1573.42 261.564C1573.52 261.43 1575.56 259.2 1579.06 255.107C1579.73 254.322 1579.01 255.161 1579.32 254.79C1580.61 253.279 1581.79 251.88 1583 250.409C1583.29 250.053 1583.3 250.034 1583.54 249.742C1585.58 247.274 1588.84 243.168 1589.4 242.439C1591.55 239.694 1592.48 238.467 1594.11 236.303C1595.71 234.169 1593.32 237.361 1595.19 234.869C1598.98 229.803 1603.84 222.944 1607.43 217.594C1608.88 215.436 1607.89 216.906 1608.1 216.598C1611.13 212.078 1614.07 207.491 1615.62 205.009C1617.62 201.827 1617.37 202.289 1621.37 195.655C1621.68 195.137 1622.08 194.466 1620.88 196.479C1619.6 198.611 1617.9 201.396 1616.1 204.265C1615.72 204.878 1613.39 208.558 1613.05 209.083C1610.49 213.048 1610.14 213.53 1610 213.753C1608.42 216.142 1605.46 220.513 1604.64 221.693C1600.97 227.011 1597.76 231.448 1594.54 235.76C1592.39 238.616 1592.21 238.854 1590.52 241.047C1584.83 248.327 1582.79 250.788 1577.15 257.366C1575.92 258.763 1577.16 257.427 1572.72 262.367C1572.45 262.676 1569.09 266.343 1567.13 268.398C1566.88 268.658 1566.89 268.653 1566.56 268.995C1564.37 271.283 1562.87 272.802 1560.42 275.226C1557.96 277.652 1554.94 280.52 1552.01 283.161C1550.25 284.757 1547.94 286.748 1547.07 287.486C1544.62 289.575 1541.95 291.751 1540.38 292.976C1538.79 294.209 1541.89 291.789 1537.71 295.011C1537.57 295.141 1537.22 295.425 1536.98 295.626C1527.77 302.586 1518.13 308.701 1507.67 313.682C1506.37 314.296 1507.71 313.68 1506.31 314.332C1500.41 317.041 1495.1 319.084 1488.63 320.983C1483.63 322.446 1478.03 323.676 1472.62 324.384C1470.98 324.59 1468.17 324.909 1465 325.079C1461.81 325.257 1458.29 325.365 1455.35 325.388C1453.29 325.402 1453.43 325.391 1451.96 325.383C1446.44 325.307 1449.03 325.353 1447.51 325.328C1441.03 325.123 1440.46 325.061 1432.84 324.438C1432.43 324.413 1427.49 323.949 1426.81 323.862C1422.5 323.37 1426.1 323.774 1423.41 323.442C1418.49 322.806 1415.08 322.296 1409.35 321.307C1407.68 321.02 1403.67 320.299 1400.45 319.617C1400.02 319.528 1400.26 319.565 1399.92 319.494C1393.74 318.184 1393.58 318.152 1390.06 317.354C1386.54 316.55 1381.14 315.151 1380.05 314.852C1377.18 314.084 1382.25 315.418 1382.41 315.449C1384.24 315.891 1380.3 314.904 1377.3 314.096C1376.88 313.95 1372.68 312.808 1374.19 313.254C1374.36 313.306 1376.7 313.936 1377.3 314.096C1374.65 313.429 1370.05 312.176 1365 310.661C1362.64 309.945 1364.87 310.611 1357.7 308.453C1354.44 307.461 1355.69 307.872 1352.82 306.991C1346.26 304.975 1337.79 302.193 1331.08 299.97C1328.64 299.164 1331.01 299.966 1329.35 299.415C1324.93 297.953 1321.04 296.637 1316.6 295.163C1316.2 295.03 1317.18 295.374 1315.8 294.914C1305.34 291.429 1296.24 288.383 1285.26 284.963C1279.95 283.296 1270.42 280.484 1264.87 278.98C1255.26 276.313 1243.29 273.465 1234.92 271.914C1229.45 270.901 1230.65 271.162 1228.3 270.772C1223.76 270.006 1215.71 268.917 1214.61 268.81C1214.58 268.797 1219.33 269.377 1216.8 269.052C1215.33 268.849 1214.67 268.817 1214.61 268.81C1213.9 268.678 1204.39 267.791 1202.5 267.734C1201.47 267.674 1202.04 267.73 1201.5 267.699C1188.76 266.987 1175.91 267.383 1163.09 269.182C1162.87 269.213 1163.2 269.139 1162.67 269.214C1156.92 270.042 1152.92 270.85 1148.55 271.847C1147.2 272.158 1145.85 272.477 1144.45 272.815C1138.57 274.232 1133.65 275.555 1130.22 276.486C1125.65 277.774 1119.26 279.784 1115.72 281.026C1111.99 282.324 1111.57 282.568 1111.24 282.684C1101.4 286.48 1095.78 288.918 1086.18 294.197C1081.62 296.661 1072.92 302.343 1068.43 305.735C1064.84 308.377 1062.71 310.016 1059.48 312.558C1059.04 312.902 1059.5 312.577 1059.36 312.682C1055.78 315.544 1057.47 314.13 1056.72 314.707C1054 316.8 1052.32 318.125 1047.69 321.732C1046.61 322.574 1043.53 325.044 1041.54 326.495C1038.96 328.379 1039.87 327.687 1037.16 329.602C1036.93 329.766 1037 329.75 1035.27 330.933C1027.28 336.403 1018.19 341.635 1009.12 345.995C1007.86 346.6 1009.5 345.857 1007.67 346.732C999.267 350.729 989.823 354.486 981.309 357.444C979.18 358.182 980.504 357.692 980.039 357.846C977.095 358.821 973.32 360.124 972.599 360.355C971.431 360.734 970.266 361.105 969.101 361.469C954.871 365.806 942.719 367.672 927.042 367.121C926.108 367.127 919.053 366.678 915.919 366.111C915.699 366.079 912.636 365.574 909.897 365.098C909.728 365.066 911.637 365.478 908.294 364.823C904.955 364.163 899.626 362.894 895.166 361.476C893.752 361.033 890.442 359.93 886.274 358.453C885.993 358.383 879.599 356.046 877.399 354.967C877.046 354.788 877.451 354.91 872.631 352.792C871.712 352.381 873.363 353.168 870.948 352.066C867.253 350.376 862.437 347.952 858.022 345.653C857.253 345.257 853.941 343.557 851.378 342.066C850.976 341.833 851.763 342.234 850.397 341.466C843.891 337.802 837.166 333.831 830.701 329.898C828.409 328.502 829.607 329.162 827.229 327.703C824.85 326.244 820.039 323.3 817.528 321.812C815.012 320.321 817.701 322.049 813.944 319.793C797.617 310.016 781.227 300.563 763.615 293.437C761 292.396 763.163 293.269 759.291 291.786C745.133 285.857 718.986 280.913 705.656 281.524C695.103 281.7 708.405 281.292 700.31 281.523C696.335 281.675 692.2 282.226 691.253 282.341C689.257 282.571 687.377 282.827 685.57 283.104C679.137 284.109 673.975 285.185 667.679 286.956C666.032 287.43 667.659 287.013 666.263 287.421C661.485 288.826 656.51 290.56 652.115 292.358C650.142 293.172 650.509 293.061 648.7 293.837C644.401 295.706 640.644 297.523 636.56 299.657C636.19 299.852 638.656 298.477 635.583 300.122C630.61 302.798 624.589 306.382 619.183 310.003C617.585 311.078 617.562 311.183 614.104 313.472C613.382 313.959 614.226 313.217 610.322 316.074C609.657 316.543 603.146 321.385 599.896 323.697C599.036 324.303 596.825 325.825 594.967 327.222C594.716 327.412 595.759 326.7 594.216 327.851C588.779 331.907 583.066 336.146 577.367 340.176C575.843 341.25 578.147 339.701 575.874 341.297C569.626 345.693 561.586 350.86 555.022 354.462C552.609 355.787 554.254 354.828 554.076 354.921C551.213 356.4 549.546 357.358 548.6 357.845C542.637 360.871 537.984 362.823 532.191 364.965C530.606 365.54 531.748 365.184 531.434 365.302C528.158 366.497 530.584 365.556 528.482 366.257C522.579 368.201 515.864 369.927 509.688 371.046C507.421 371.452 509.984 371.065 507.942 371.42C504.467 372.009 501.132 372.451 497.562 372.794C488.487 373.666 479.525 373.717 471.061 372.955C468.779 372.741 470.22 372.822 469.746 372.767C466.476 372.396 461.808 371.806 460.751 371.624C455.869 370.825 453.929 370.344 449.721 369.291C428.755 364.325 405.655 350.367 390.417 337.193C370.398 320.136 357.098 304.534 340.809 285.59C339.776 284.378 340.761 285.648 339.87 284.604C328.392 271.14 317.306 257.722 305.381 244.642C304.401 243.569 305.76 245.164 304.183 243.446C300.949 239.922 296.805 235.517 293.434 232.051C291.791 230.363 294.051 232.572 292.394 230.876C288.542 226.939 284.279 222.796 280.094 218.99C278.304 217.368 280.951 219.874 278.625 217.766C262.783 203.485 245.524 191.148 225.88 182.314C224.533 181.714 223.416 181.037 220.473 179.883C220.235 179.835 220.228 179.888 220.114 179.894C207.682 174.948 194.734 171.621 181.402 169.91C164.008 167.704 146.296 167.559 128.602 168.303C127.285 168.361 129.566 168.348 127.015 168.464C112.286 169.163 98.0248 170.487 83.017 172.201C81.529 172.375 82.2603 172.114 77.9032 172.689C77.131 172.785 70.5288 173.683 68.8481 173.961C68.6162 173.999 69.8361 173.904 67.6995 174.206C55.3304 175.959 42.5716 178.033 30.2481 180.248C28.2708 180.605 30.3571 180.136 28.9531 180.389C19.0197 182.176 8.14857 184.431 -1.29521 186.42C-7.58446 187.754 -5.32158 187.108 -8.73046 187.731C-9.23672 187.823 -13.0704 188.711 -13.3333 188.69C-13.642 188.655 -13.2917 188.458 -12.9635 188.266C-12.7171 188.092 -12.4831 187.92 -12.8626 187.894C-13.0387 187.894 -16.1904 188.671 -16.1305 188.618C-16.1305 188.618 -16.1305 188.618 -16.1305 188.618C-16.1214 188.609 -16.1776 188.615 -15.989 188.559C-15.9435 188.546 -15.8535 188.521 -15.7804 188.501C-15.7465 188.49 -15.7063 188.477 -15.6576 188.463C-15.56 188.433 -15.4292 188.395 -15.2414 188.343C-14.965 188.264 -11.231 187.344 -10.2755 187.088C-9.65666 186.918 -10.8162 187.096 -9.52483 186.764C-8.09309 186.401 -6.80903 186.183 -4.45488 185.619C-2.37847 185.12 -3.22218 185.199 1.11736 184.253ZM1099.53 287.366C1096.32 288.798 1095.9 289.105 1099.34 287.505C1099.51 287.428 1099.7 287.292 1099.53 287.366ZM1517.97 308.247C1513.91 310.56 1511.05 312.003 1513.98 310.484C1516.89 308.932 1519.2 307.536 1517.97 308.247ZM1556.43 279.034C1552.44 282.755 1551.83 283.355 1556.1 279.37C1556.35 279.137 1556.67 278.815 1556.43 279.034ZM6.87946 184.287C6.80882 184.296 4.05409 184.871 3.98742 184.891C2.53035 185.293 8.0733 184.135 6.87946 184.287ZM1588.63 243.433C1587.56 244.806 1584.52 248.581 1585.84 246.949C1586.9 245.654 1589.96 241.755 1588.63 243.433ZM934.299 366.891C934.241 366.894 932.18 366.907 932.222 366.914C932.359 366.958 935.234 366.91 934.299 366.891ZM1633.01 174.996C1627.34 185.638 1623.63 191.942 1630.07 180.477C1630.62 179.467 1630.04 180.534 1629.44 181.613C1628.85 182.691 1628.26 183.754 1629.04 182.345C1631.67 177.568 1633.43 174.312 1635.99 169.165C1636.4 168.38 1633.4 174.312 1633 175.016C1633.01 175.01 1633.01 175.003 1633.01 174.996ZM1097.64 288.097C1097.61 288.102 1094.95 289.362 1094.9 289.392C1093.5 290.092 1098.77 287.593 1097.64 288.097ZM823.029 324.691C822.895 324.603 817.215 321.149 817.026 321.042C814.021 319.308 825.51 326.289 823.029 324.691ZM1285.61 284.875C1288.6 285.784 1292.16 286.916 1294.53 287.708C1291.57 286.752 1288.59 285.806 1285.61 284.875Z" fill="url(#paint0_linear_628_5212)"/>
<path d="M1620.56 208.063C1611.62 203.722 1599.99 198.197 1591.02 194.038C1588.21 192.737 1589.66 193.345 1587.69 192.434C1583.92 190.689 1580.35 189.102 1576.6 187.402C1575.38 186.845 1576.94 187.456 1575.65 186.873C1568.47 183.63 1561.61 180.658 1554.38 177.548C1518.36 162.128 1482.37 148.225 1444.37 136.954C1431.83 133.241 1416.46 129.172 1403.22 126.516C1401.68 126.206 1402.58 126.455 1402.29 126.401C1397.72 125.572 1399.23 125.743 1396.2 125.156C1387.74 123.536 1378.26 122.121 1369.47 121.373C1365.83 121.059 1362.33 120.842 1359.02 120.706C1354.11 120.533 1359.03 120.815 1354.1 120.609C1353.74 120.596 1355.03 120.559 1353.64 120.523C1350.46 120.423 1344.58 120.49 1342.22 120.579C1337.7 120.734 1336.78 120.788 1332.44 121.108C1326.58 121.553 1319.33 122.421 1313.14 123.553C1311.78 123.801 1313.59 123.535 1311.42 123.947C1309.23 124.344 1303.58 125.556 1301.71 126.013C1299.83 126.455 1300.62 126.213 1300.29 126.283C1297.45 126.853 1291.06 128.834 1290.26 129.108C1275.26 133.806 1262.87 139.247 1249.9 146.267C1240.07 151.609 1229.96 158.069 1221.2 164.146C1210.76 171.397 1202.19 177.89 1192.46 185.5C1191.43 186.303 1192.67 185.417 1191.42 186.398C1178.13 196.841 1165.11 207.458 1151.69 217.646C1150.35 218.667 1152.05 217.301 1150.7 218.318C1142.48 224.595 1129.1 233.974 1124.08 237.527C1118.26 241.411 1111.05 245.894 1105.58 248.992C1102.06 250.979 1105.44 248.988 1101.14 251.441C1100.17 251.989 1101.47 251.33 1100 252.146C1093.81 255.595 1086.95 259.038 1080.55 261.956C1079.27 262.542 1079.64 262.424 1079.28 262.596C1076.24 264.044 1070.96 266.102 1069.8 266.542C1061.13 269.901 1054.63 272.113 1046.23 274.516C1044.27 275.067 1046.61 274.475 1044.72 275.004C1035.04 277.69 1024.83 279.802 1014.92 281.197C1012.78 281.495 1014.74 281.167 1013.71 281.306C1009.18 281.896 1008.17 282.107 1003.72 282.546C1002.77 282.634 1003.3 282.54 1003.13 282.553C1002 282.631 1000.93 282.727 1000.01 282.816C998.743 282.938 997.783 283.047 997.38 283.079C988.655 283.741 983.129 283.833 974.733 283.865C973.736 283.864 975.983 283.925 973.182 283.914C954.358 283.838 934.488 281.64 916.229 277.858C913.382 277.267 915.422 277.649 915.244 277.608C912.34 276.936 910.45 276.607 909.529 276.405C902.268 274.803 895.556 272.941 890.648 271.666C860.266 263.056 831.261 250.779 802.5 238.519C802.134 238.363 802.806 238.603 802.076 238.292C793.281 234.557 794.948 235.328 789.086 232.96C787.61 232.362 783.17 230.424 782.775 230.257C781.34 229.639 782.861 230.201 782.379 229.997C778.388 228.321 778.97 228.763 773.557 226.581C773.388 226.513 774.113 226.765 773.659 226.579C772.251 226.002 770.844 225.456 769.463 224.897C766.3 223.621 765.21 223.085 760.325 221.279C759.705 221.055 760.613 221.499 755.731 219.67C753.798 218.929 745.131 215.82 742.695 215.002C740.264 214.166 741.945 214.703 741.772 214.643C735.215 212.39 737.711 213.215 734.423 212.075C731.129 210.955 732.004 211.403 730.648 210.996C729.294 210.584 724.433 209.086 723.229 208.734C722.03 208.374 723.536 208.787 722.468 208.472C715.401 206.428 719.341 207.671 716.998 207.049C711.459 205.613 707.164 204.441 702.056 203.286C700.671 202.976 701.797 203.251 700.561 202.982C695.635 201.932 692.763 201.321 687.124 200.371C686.187 200.209 681.675 199.534 678.734 199.079C678.318 199.014 679.509 199.152 677.398 198.853C674.226 198.397 668.558 197.736 665.15 197.443C662.63 197.224 665.518 197.519 662.34 197.235C660.925 197.115 663.553 197.299 660.891 197.079C658.228 196.844 651.571 196.482 648.964 196.419C646.382 196.34 647.794 196.417 647.585 196.412C646.283 196.376 641.448 196.327 641.001 196.336C627.971 196.299 615.878 197.115 603.509 198.713C594.948 199.826 586.501 201.354 577.972 203.374C576.333 203.765 577.432 203.535 577.182 203.595C571.616 204.975 575.974 203.807 572.112 204.766C572.702 204.68 570.357 205.254 566.492 206.361C564.634 206.898 565.653 206.63 565.484 206.681C562.719 207.52 560.776 208.082 560.283 208.225C558.458 208.756 556.488 209.441 555.24 209.833C553.999 210.226 556.824 209.237 553.154 210.478C552.136 210.849 554.867 209.972 552.097 210.932C541.559 214.437 522.494 222.61 514.446 226.467C506.377 230.242 503.798 231.521 499.119 233.766C490.671 237.837 493.784 236.377 488.543 238.919C483.286 241.457 485.806 240.148 485.041 240.494C484.289 240.832 483.485 241.236 482.553 241.666C481.625 242.094 483.62 241.136 481.445 242.16C479.277 243.19 473.321 245.981 472.552 246.343C470.927 247.12 473.649 245.959 467.834 248.535C467.499 248.682 468.575 248.182 467.294 248.745C457.117 253.221 446.324 257.49 435.755 260.874C434.305 261.338 435.594 260.9 434.75 261.168C425.859 263.899 429.089 262.928 424.186 264.354C425.259 263.983 422.601 264.768 415.721 266.397C411.631 267.334 412.338 267.189 409.656 267.773C408.833 267.953 405.924 268.506 405.392 268.613C403.641 268.96 406.439 268.554 399.265 269.743C398.954 269.792 399.941 269.613 398.866 269.784C392.05 270.815 391.107 270.975 384.007 271.72C383.788 271.742 383.563 271.764 383.333 271.785C377.269 272.422 366.624 272.775 359.756 272.469C359.881 272.438 353.471 272.158 350.824 271.942C346.364 271.576 341.631 271.009 337.363 270.343C335.903 270.114 336.865 270.248 336.681 270.218C333.869 269.748 331.966 269.429 331.014 269.253C320.808 267.333 312.567 265.125 303.102 262.172C302.767 262.064 302.207 261.931 299.694 261.077C299.532 261.021 302.647 262.04 298.218 260.566C293.785 259.097 285.513 256.049 279.497 253.635C278.041 253.06 274.344 251.583 271.42 250.331C271.03 250.164 271.461 250.337 270.899 250.095C269.083 249.313 268.069 248.915 265.941 247.972C263.814 247.031 259.373 245.082 253.4 242.434C253.212 242.351 251.784 241.739 249.906 240.897C246.909 239.554 242.661 237.638 239.529 236.238C238.031 235.569 238.985 236.009 238.725 235.893C228.636 231.411 221.462 228.209 210.472 223.846C208.451 223.04 202.639 220.835 198.671 219.444C194.311 217.95 198.854 219.32 188.751 216.117C184.666 214.879 179.451 213.399 171.97 211.705C157.437 208.533 143.577 207.158 128.691 207.955C128.025 207.989 125.913 208.133 124.329 208.269C121.967 208.471 120.704 208.605 119.058 208.798C112.085 209.637 105.779 210.848 99.234 212.495C96.7668 213.132 97.6333 212.889 94.6691 213.712C93.5277 214.036 92.5286 214.331 91.4998 214.644C89.9248 215.126 88.2018 215.674 85.8159 216.493C82.8517 217.517 79.8986 218.594 76.0552 220.137C75.9117 220.213 73.2581 221.249 68.6014 223.291C67.712 223.682 68.6674 223.266 68.2467 223.451C66.5374 224.206 64.9334 224.927 63.3259 225.671C62.9328 225.852 62.9157 225.864 62.5944 226.014C59.8497 227.282 55.3869 229.447 54.6228 229.83C51.6919 231.276 50.3304 231.976 48.0998 233.121C45.8771 234.269 49.1971 232.547 46.6033 233.891C41.2194 236.683 34.3905 240.423 29.0446 243.479C26.8991 244.706 28.3641 243.871 28.0571 244.047C23.6757 246.553 19.1948 249.209 16.8247 250.638C13.7697 252.472 14.1798 252.209 7.99307 256.029C7.50873 256.33 6.87773 256.717 8.76007 255.549C10.6243 254.392 13.4605 252.655 16.0777 251.079C16.7162 250.691 20.2245 248.593 20.7375 248.293C24.5076 246.067 25.1025 245.746 25.2888 245.636C27.571 244.312 31.9619 241.815 33.1389 241.162C38.4425 238.194 42.9974 235.75 47.5185 233.405C50.4747 231.878 50.7655 231.725 53.1011 230.553C60.8927 226.704 63.647 225.427 71.1559 222.156C72.7825 221.475 71.1206 222.106 76.9784 219.746C77.332 219.597 81.6925 217.906 84.2468 217.008C84.5672 216.893 84.5557 216.893 84.9776 216.744C87.3534 215.912 89.1427 215.324 91.4883 214.606C91.918 214.476 92.3671 214.341 92.8432 214.2C96.0442 213.25 99.7321 212.269 103.402 211.446C105.623 210.941 108.442 210.398 109.488 210.212C112.388 209.678 115.726 209.172 117.562 208.948C119.435 208.726 115.785 209.169 120.681 208.604C120.86 208.57 121.274 208.511 121.562 208.467C132.434 207.349 143.206 207.444 154.065 208.661C155.411 208.815 154.036 208.645 155.478 208.816C161.548 209.56 166.835 210.493 173.042 211.881C177.837 212.957 183.065 214.339 187.985 215.832C190.994 216.746 198.246 219.124 203.444 221.072C205.264 221.747 205.139 221.71 206.43 222.201C211.296 224.076 209.022 223.184 210.357 223.698C216.051 225.941 216.537 226.195 223.182 229.001C223.534 229.147 227.854 230.974 228.44 231.231C232.194 232.856 229.057 231.51 231.402 232.541C235.689 234.431 238.646 235.761 243.668 238.001C245.133 238.655 248.636 240.205 251.473 241.49C251.846 241.659 251.635 241.577 251.936 241.712C257.372 244.148 257.53 244.174 260.656 245.535C263.776 246.894 268.6 248.987 269.588 249.409C272.16 250.517 267.606 248.58 267.467 248.518C265.818 247.835 269.354 249.352 272.051 250.479C272.426 250.68 276.217 252.241 274.856 251.645C274.701 251.578 272.592 250.708 272.051 250.479C274.435 251.437 278.608 253.156 283.227 254.988C285.395 255.834 283.327 255.104 289.953 257.562C292.97 258.656 291.812 258.21 294.488 259.149C300.594 261.29 308.607 263.832 315.076 265.518C317.412 266.127 315.139 265.519 316.738 265.931C320.988 267.013 324.772 267.888 329.093 268.733C329.485 268.809 328.529 268.606 329.877 268.867C340.066 270.796 349.145 271.904 359.945 272.286C365.196 272.513 374.577 272.305 379.968 271.841C381.264 271.743 382.608 271.627 383.985 271.494C392.529 270.689 401.996 269.213 408.762 267.81C413.928 266.731 412.773 266.93 414.951 266.427C419.207 265.453 426.607 263.483 427.6 263.183C427.637 263.182 423.279 264.399 425.609 263.764C426.967 263.409 427.55 263.197 427.6 263.183C428.246 263.043 436.874 260.391 438.565 259.774C439.489 259.461 438.965 259.615 439.446 259.451C450.86 255.562 462.02 250.912 473.15 245.836C473.346 245.747 473.062 245.905 473.522 245.696C479.964 242.753 484.039 240.76 489.295 238.211C494.548 235.656 498.718 233.634 501.852 232.175C505.818 230.251 511.544 227.545 514.843 226.028C518.15 224.505 518.598 224.249 518.885 224.115C527.969 219.954 533.281 217.675 542.953 213.941C547.522 212.157 556.812 208.918 561.892 207.406C565.976 206.163 568.349 205.511 572.152 204.499C572.656 204.367 572.14 204.473 572.293 204.432C576.458 203.331 574.474 203.913 575.34 203.705C578.523 202.974 580.442 202.52 585.904 201.374C587.203 201.101 590.767 200.316 593.103 199.913C596.13 199.394 594.98 199.616 598.106 199.119C598.376 199.078 598.31 199.06 600.258 198.778C601.308 198.627 602.376 198.48 603.46 198.339C611.736 197.253 620.339 196.507 628.717 196.16C629.998 196.109 628.356 196.136 630.205 196.065C639.008 195.73 648.618 195.868 657.122 196.427C659.202 196.565 657.896 196.508 658.347 196.545C661.14 196.771 665.138 197.056 665.783 197.119C681.357 198.618 693.142 200.736 708.668 204.422C709.505 204.609 716.028 206.185 718.866 207.058C719.062 207.116 721.873 207.967 724.398 208.657C724.554 208.701 722.8 208.146 725.878 209.056C728.957 209.967 733.879 211.467 738.059 212.894C739.382 213.344 742.481 214.449 746.428 215.771C746.689 215.849 752.788 217.882 754.901 218.77C755.244 218.916 754.847 218.857 759.516 220.559C760.407 220.886 758.804 220.255 761.146 221.129C764.734 222.471 769.449 224.34 773.835 226.051C774.6 226.349 777.867 227.59 780.442 228.699C780.845 228.873 780.061 228.588 781.429 229.152C787.937 231.836 794.738 234.666 801.315 237.464C803.642 238.455 802.429 238.003 804.853 239.042C807.276 240.081 812.172 242.163 814.724 243.206C817.278 244.25 814.533 243.002 818.349 244.592C834.945 251.498 851.441 258.219 868.419 264.028C870.943 264.886 868.862 264.153 872.574 265.391C886.242 270.125 910.408 276.383 922.779 278.474C932.669 280.252 920.188 278.16 927.766 279.471C931.463 280.095 935.39 280.517 936.286 280.632C944.996 281.743 950.959 282.338 958.86 282.787C960.466 282.872 958.893 282.737 960.261 282.807C964.907 283.04 970.018 283.192 974.433 283.192C976.442 283.19 976.071 283.153 977.928 283.14C982.382 283.099 986.375 282.982 990.653 282.79C991.047 282.772 988.396 282.965 991.674 282.788C994.188 282.645 997.011 282.459 999.963 282.212C1003.26 281.937 1006.63 281.583 1009.82 281.167C1011.61 280.925 1011.66 280.845 1015.5 280.354C1016.32 280.238 1015.31 280.531 1019.84 279.703C1020.64 279.577 1028.02 278.118 1031.76 277.354C1032.74 277.164 1035.25 276.695 1037.37 276.162C1037.65 276.089 1036.49 276.323 1038.25 275.887C1044.33 274.371 1050.94 272.456 1057.06 270.37C1058.73 269.797 1056.22 270.598 1058.71 269.74C1065.53 267.395 1073.86 264.061 1080.23 261.167C1082.57 260.102 1080.97 260.884 1081.14 260.811C1083.95 259.609 1085.52 258.726 1086.42 258.282C1092.01 255.514 1096.27 253.318 1101.28 250.496C1102.67 249.714 1101.66 250.221 1101.93 250.061C1104.76 248.404 1102.68 249.696 1104.49 248.669C1109.58 245.768 1115.07 242.373 1120.03 239.134C1121.84 237.947 1119.77 239.228 1121.39 238.162C1131 231.838 1140.69 224.814 1149.64 218.034C1151.33 216.757 1150.3 217.603 1150.66 217.345C1153.12 215.565 1156.57 212.755 1157.38 212.112C1161.03 209.205 1162.47 208.121 1165.69 205.563C1181.43 193.033 1200.73 177.377 1216.28 166.404C1236.52 152.141 1253.18 142.204 1275.17 133.365C1276.58 132.813 1275.13 133.299 1276.34 132.826C1291.95 126.758 1308.11 122.748 1324.75 120.78C1326.14 120.619 1324.14 120.772 1326.35 120.52C1330.75 120.016 1336.57 119.592 1341.16 119.456C1343.36 119.39 1340.41 119.553 1342.62 119.489C1347.73 119.349 1353.65 119.393 1358.83 119.603C1361.1 119.697 1357.68 119.468 1360.63 119.603C1363.58 119.746 1366.55 119.946 1369.57 120.203C1386.68 121.692 1403.53 124.976 1420.5 129.21C1421.87 129.555 1423 129.994 1425.89 130.705C1426.12 130.718 1426.12 130.665 1426.23 130.643C1454.78 138.012 1482.41 147.506 1509.99 158.012C1511.16 158.459 1509.17 157.603 1511.44 158.469C1524.45 163.461 1537.03 168.51 1550.15 174.138C1551.43 174.688 1550.72 174.56 1554.59 176.18C1555.31 176.478 1560.97 178.878 1562.55 179.531C1562.76 179.614 1561.73 179.084 1563.6 179.895C1574.39 184.563 1585.62 189.617 1596.29 194.603C1598.04 195.423 1596.14 194.634 1597.38 195.216C1606.02 199.271 1615.53 203.722 1623.69 207.802C1629.23 210.581 1626.94 209.619 1629.92 211.26C1630.14 211.378 1631.12 211.872 1631.91 212.284C1632.98 212.835 1633.78 213.266 1633.83 213.338C1634.16 213.74 1632.51 213.166 1633.05 213.692C1633.07 213.713 1633.26 213.813 1633.5 213.938C1633.62 214.001 1633.75 214.07 1633.88 214.139C1634.09 214.244 1634.31 214.357 1634.5 214.453C1634.69 214.55 1634.85 214.636 1634.99 214.708C1635.06 214.744 1635.12 214.776 1635.18 214.805C1635.2 214.82 1635.23 214.833 1635.25 214.846C1635.26 214.853 1635.28 214.859 1635.29 214.865C1635.32 214.882 1635.35 214.898 1635.38 214.913C1635.83 215.148 1635.74 215.111 1635.75 215.127C1635.75 215.127 1635.75 215.127 1635.75 215.127C1635.74 215.13 1635.77 215.152 1635.66 215.107C1635.6 215.083 1635.51 215.038 1635.3 214.938C1635.17 214.879 1635.11 214.856 1634.97 214.792C1634.93 214.772 1634.73 214.677 1634.34 214.482C1633.85 214.243 1633.53 214.087 1633.07 213.861C1632.61 213.64 1632.07 213.38 1631.57 213.135C1631.18 212.953 1630.85 212.798 1630.65 212.71C1630.09 212.462 1631.05 213.036 1629.9 212.5C1628.62 211.901 1627.54 211.283 1625.54 210.342C1623.4 209.333 1624.53 209.992 1620.56 208.063ZM529.825 219.377C532.94 218.082 533.357 217.801 530.011 219.245C529.849 219.316 529.664 219.445 529.825 219.377ZM143.105 207.84C147.521 208.045 150.494 208.317 147.413 208.063C144.323 207.837 141.756 207.788 143.105 207.84ZM97.8888 212.821C102.831 211.577 103.594 211.372 98.3124 212.693C98.0041 212.773 97.5989 212.897 97.8888 212.821ZM1616.33 204.652C1616.39 204.684 1618.84 205.874 1618.88 205.89C1620.22 206.435 1615.34 204.064 1616.33 204.652ZM55.6762 229.3C57.1221 228.585 61.2935 226.598 59.4915 227.452C58.039 228.131 53.8754 230.18 55.6762 229.3ZM701.931 203.194C701.984 203.206 703.89 203.638 703.853 203.62C703.733 203.554 701.075 202.97 701.931 203.194ZM-10.8513 268.153C-1.35476 261.846 4.48904 258.18 -5.91647 264.893C-7.81197 266.129 -1.86484 262.254 -4.27246 263.82C-8.64568 266.671 -11.5367 268.578 -15.9636 271.62C-16.782 272.17 -11.3458 268.468 -10.8344 268.141C-10.84 268.145 -10.8456 268.149 -10.8513 268.153ZM531.659 218.727C531.719 218.701 534.21 217.662 534.272 217.638C535.609 217.046 530.588 219.137 531.659 218.727ZM809.181 241.298C809.317 241.361 815.1 243.802 815.289 243.876C818.337 245.076 806.646 240.143 809.181 241.298ZM359.648 272.464C356.67 272.386 353.223 272.171 350.838 271.944C353.797 272.189 356.676 272.358 359.648 272.464Z" fill="url(#paint1_linear_628_5212)"/>
<path d="M-1.34309 64.1514C7.72795 58.8142 19.7209 52.229 28.9746 47.4513C31.8853 45.9467 30.451 46.7516 32.4651 45.7204C36.3466 43.7397 40.0256 41.8527 43.9579 39.9373C45.2716 39.2987 43.6771 40.1743 45.0527 39.5045C52.4947 35.8886 59.5902 32.5291 67.2884 29.1229C97.9256 15.7852 129.387 3.98425 162.953 0.622179C171.016 -0.0949224 178.909 -0.208307 186.854 0.336047C200.716 1.16121 217.251 5.04937 230.461 10.5388C232.002 11.1676 231.108 10.7328 231.403 10.8484C236.017 12.7213 234.446 12.1962 237.397 13.5588C249.09 19.0242 261.257 26.7184 271.212 34.1248C275.426 37.2782 271.29 33.9903 275.466 37.2703C275.755 37.4998 274.657 36.7316 275.797 37.6232C278.4 39.6423 283.22 43.5518 285.16 45.2038C288.91 48.3827 289.506 48.9046 292.985 51.9667C297.747 56.1751 303.247 61.2997 308.18 65.9653C309.233 66.9609 307.887 65.5916 309.569 67.1772C311.257 68.7632 315.667 73.0176 317.133 74.4642C318.605 75.9118 317.938 75.3364 318.193 75.5991C320.285 77.7627 325.447 82.6089 326.101 83.2421C338.033 94.7957 348.194 104.783 359.903 115.065C368.786 122.87 378.675 130.773 387.936 137.161C398.964 144.752 408.834 150.492 420.74 155.736C422.004 156.284 420.55 155.582 422.095 156.245C438.459 163.25 455.875 167.423 473.565 168.549C475.337 168.659 473.047 168.583 474.821 168.693C476.699 168.804 478.786 168.894 481.003 168.941C491.411 169.263 504.112 168.136 509.396 167.119C516.712 166.142 525.451 164.309 531.849 162.627C535.952 161.536 532.001 162.712 537.02 161.245C538.147 160.905 536.667 161.291 538.354 160.782C545.482 158.623 553.14 155.876 559.96 153.101C561.349 152.536 560.951 152.645 561.342 152.478C564.622 151.085 570.123 148.834 571.306 148.316C580.358 144.401 586.86 141.293 595.197 137.423C597.132 136.525 594.82 137.532 596.68 136.667C606.33 132.176 616.388 127.632 626.115 123.847C628.279 123.008 626.311 123.829 627.343 123.433C631.905 121.706 632.902 121.24 637.331 119.717C638.269 119.399 637.755 119.62 637.927 119.566C640.637 118.716 642.916 117.889 643.616 117.667C652.372 114.93 658.122 113.573 666.814 111.849C667.86 111.65 665.503 112.038 668.424 111.492C678.161 109.703 688.323 108.657 698.495 108.437C708.797 108.203 719 108.883 728.74 110.365C731.784 110.84 729.605 110.541 729.796 110.575C732.902 111.132 734.896 111.42 735.871 111.601C743.623 113.051 750.699 115.056 755.822 116.518C787.815 126.308 816.291 143.966 845.178 159.802C845.546 160.003 844.866 159.68 845.601 160.081C854.469 164.874 852.8 163.896 858.768 166.874C860.272 167.626 864.815 169.962 865.225 170.157C866.7 170.894 865.133 170.207 865.628 170.45C869.741 172.441 869.137 171.974 874.76 174.482C874.936 174.56 874.182 174.267 874.653 174.478C876.118 175.135 877.587 175.75 879.033 176.368C882.346 177.766 883.488 178.359 888.663 180.217C889.323 180.438 888.341 180.022 893.539 181.813C895.6 182.58 904.909 185.35 907.544 185.938C910.177 186.592 908.36 186.181 908.547 186.229C915.685 187.933 912.963 187.303 916.541 188.098C920.136 188.832 919.168 188.482 920.65 188.718C922.139 188.97 927.409 189.726 928.744 189.862C930.062 190.018 928.414 189.862 929.587 189.994C937.295 190.758 932.976 190.224 935.527 190.402C941.613 190.732 946.265 190.875 951.778 190.687C953.263 190.629 952.049 190.656 953.374 190.593C958.692 190.296 961.752 190.071 967.773 189.243C967.998 189.211 968.424 189.148 968.988 189.061C970.909 188.773 974.331 188.171 976.69 187.731C977.123 187.65 975.905 187.928 978.084 187.488C981.305 186.856 987.315 185.332 990.656 184.261C993.225 183.447 990.275 184.346 993.497 183.315C994.92 182.844 992.298 183.755 994.964 182.862C997.613 182.013 1004.23 179.38 1006.68 178.218C1009.13 177.097 1007.78 177.68 1007.98 177.588C1009.16 177.058 1013.82 174.701 1014.21 174.469C1034.69 163.631 1050.78 149.021 1065.82 132.307C1067 130.991 1066.19 131.846 1066.37 131.645C1070.37 127.107 1067.28 130.741 1070.08 127.57C1069.63 127.99 1071.29 126.119 1074.03 122.855C1075.35 121.278 1074.61 122.12 1074.73 121.975C1076.66 119.614 1078.04 117.993 1078.39 117.579C1079.7 116.04 1081.04 114.306 1081.92 113.248C1082.8 112.19 1080.85 114.68 1083.41 111.482C1084.11 110.571 1082.17 112.914 1084.1 110.476C1091.38 101.298 1104.7 83.9375 1110.65 76.6258C1116.55 69.3099 1118.54 66.9878 1122.1 62.842C1128.64 55.3907 1126.21 58.1126 1130.36 53.56C1134.58 49.0561 1132.59 51.3086 1133.21 50.6761C1133.83 50.0621 1134.47 49.3665 1135.24 48.6029C1136 47.8421 1134.37 49.5146 1136.15 47.7098C1137.93 45.8816 1142.91 41.0755 1143.58 40.467C1144.97 39.1612 1142.59 41.1923 1147.63 36.7488C1147.92 36.4959 1146.99 37.3356 1148.1 36.3671C1156.98 28.6765 1166.98 21.5562 1177.35 16.0729C1178.78 15.3222 1177.51 16.0147 1178.34 15.5801C1187.14 11.1967 1183.95 12.7824 1188.85 10.5784C1187.75 11.1406 1190.53 9.81562 1197.46 7.42037C1201.69 6.01925 1201.01 6.23671 1203.75 5.41208C1204.56 5.16392 1207.6 4.37273 1208.15 4.23066C1209.98 3.77132 1207.06 4.31101 1214.57 2.72107C1214.9 2.6569 1213.87 2.88294 1214.99 2.66019C1219.48 1.79233 1221.61 1.4844 1224.49 1.08314C1226.27 0.846113 1228.33 0.5903 1231.4 0.341549C1237.71 -0.267974 1249.07 -0.168562 1256.24 0.753363C1256.1 0.762194 1262.82 1.62107 1265.58 2.15075C1270.19 3.00215 1275.14 4.20474 1279.48 5.48894C1280.97 5.93395 1279.99 5.65721 1280.17 5.71452C1283.07 6.60776 1285.01 7.23566 1285.96 7.56064C1296.35 11.1448 1304.49 14.9231 1313.79 19.7561C1314.12 19.9306 1314.67 20.1726 1317.13 21.5303C1317.28 21.6197 1314.24 19.9728 1318.56 22.3391C1322.89 24.6992 1330.9 29.4342 1336.7 33.0651C1338.11 33.936 1341.67 36.1509 1344.49 37.9837C1344.87 38.2276 1344.45 37.9701 1344.99 38.3232C1346.74 39.4652 1347.72 40.059 1349.77 41.4144C1351.82 42.7697 1356.09 45.5729 1361.9 49.3083C1362.09 49.4271 1363.47 50.2945 1365.3 51.4656C1368.22 53.3426 1372.36 55.968 1375.46 57.8684C1376.93 58.7763 1375.99 58.184 1376.25 58.3414C1386.21 64.3881 1393.38 68.5809 1404.65 73.9435C1406.72 74.9348 1412.73 77.5855 1416.88 79.1455C1421.45 80.8003 1416.66 79.3656 1427.31 82.7538C1431.64 84.0202 1437.17 85.4811 1445.18 86.7408C1460.23 88.9781 1474.6 88.3719 1489.5 85.1506C1489.96 85.051 1490.42 84.9482 1490.88 84.8424C1491.57 84.689 1493.74 84.1578 1495.37 83.7232C1497.75 83.0935 1499.05 82.7178 1500.75 82.2062C1507.82 80.0598 1514.18 77.6707 1520.77 74.9014C1523.25 73.8451 1522.38 74.2294 1525.34 72.9244C1528.31 71.6002 1530.24 70.7083 1534.19 68.8008C1537.16 67.3596 1540.13 65.8846 1544.01 63.8423C1544.15 63.7508 1546.83 62.3646 1551.51 59.7627C1552.4 59.2617 1551.44 59.7954 1551.86 59.5581C1553.6 58.5899 1555.19 57.686 1556.82 56.747C1557.22 56.5184 1557.23 56.5047 1557.56 56.3174C1560.32 54.721 1564.8 52.0443 1565.59 51.5652C1568.55 49.7706 1569.89 48.9309 1572.15 47.5154C1574.39 46.1075 1571.05 48.2167 1573.66 46.5707C1579.08 43.1484 1585.9 38.6429 1591.28 34.9379C1593.39 33.4822 1591.95 34.4732 1592.25 34.2654C1596.71 31.1901 1601.07 28.0822 1603.51 26.3126C1606.51 24.1369 1606.15 24.4239 1612.29 19.8532C1612.77 19.4897 1613.41 19.021 1611.52 20.433C1609.69 21.8005 1606.8 23.9324 1604.25 25.7854C1603.62 26.2446 1600.09 28.7872 1599.6 29.1276C1595.74 31.872 1595.26 32.1774 1595.04 32.3332C1592.72 33.9554 1588.37 36.9362 1587.17 37.741C1581.88 41.31 1577.25 44.3172 1572.74 47.164C1569.75 49.0412 1569.47 49.2211 1567.12 50.6635C1559.28 55.4226 1556.5 57.0161 1548.94 61.2075C1547.31 62.0893 1548.95 61.2561 1543.08 64.3533C1542.71 64.5514 1538.33 66.8092 1535.77 68.0655C1535.45 68.2242 1535.46 68.2231 1535.04 68.4309C1532.21 69.8149 1530.28 70.7285 1527.16 72.15C1524.01 73.5844 1520.23 75.2221 1516.57 76.6816C1514.39 77.5564 1511.5 78.6286 1510.45 79.0077C1507.47 80.0903 1504.15 81.2015 1502.29 81.7712C1500.38 82.3471 1504.13 81.206 1499.08 82.7127C1498.89 82.7811 1498.47 82.9192 1498.17 83.0184C1495.33 83.8263 1492.37 84.5781 1489.51 85.1973C1481.11 87.0142 1472.91 88.0039 1464.28 88.1136C1462.85 88.1255 1464.31 88.1272 1462.79 88.1318C1456.31 88.1115 1450.65 87.6625 1444.04 86.6277C1438.89 85.8147 1433.34 84.5695 1428.13 83.0436C1424.94 82.1343 1417.29 79.5579 1411.9 77.2527C1410.01 76.4563 1410.14 76.5005 1408.81 75.916C1403.79 73.6618 1406.14 74.7264 1404.77 74.103C1398.92 71.3324 1398.43 71.0419 1391.72 67.436C1391.36 67.2536 1387.02 64.863 1386.44 64.5215C1382.69 62.3759 1385.83 64.1599 1383.49 62.7977C1379.22 60.2861 1376.31 58.5025 1371.38 55.4318C1369.95 54.5404 1366.51 52.385 1363.76 50.5964C1363.4 50.3614 1363.6 50.481 1363.31 50.2927C1358.03 46.8778 1357.88 46.8076 1354.85 44.8653C1351.83 42.9179 1347.18 39.8824 1346.24 39.2675C1343.76 37.6536 1348.15 40.4853 1348.28 40.5723C1349.87 41.5741 1346.47 39.3776 1343.86 37.7102C1343.51 37.4358 1339.85 35.1174 1341.16 35.9856C1341.31 36.0835 1343.34 37.3734 1343.86 37.7102C1341.55 36.2778 1337.54 33.7288 1333.08 30.9557C1330.99 29.6687 1333 30.824 1326.58 27.0161C1323.65 25.3068 1324.77 25.9877 1322.17 24.5082C1316.24 21.1282 1308.38 16.9804 1301.96 14.0918C1299.63 13.043 1301.89 14.0776 1300.3 13.3666C1296.06 11.4954 1292.27 9.95423 1287.89 8.39055C1287.49 8.25053 1288.45 8.60928 1287.09 8.12866C1276.73 4.53871 1267.39 2.22001 1256.03 0.919573C1250.51 0.226524 1240.68 -0.0547436 1234.88 0.339688C1231.63 0.512594 1228.14 0.819476 1224.52 1.29065C1217.23 2.22416 1210.12 3.76104 1204.66 5.30139C1199.39 6.83034 1200.51 6.56532 1198.27 7.30076C1193.95 8.69357 1186.41 11.8054 1185.46 12.28C1185.42 12.2794 1189.78 10.3903 1187.44 11.3837C1186.08 11.9487 1185.51 12.2588 1185.46 12.28C1184.81 12.479 1176.22 16.7447 1174.66 17.7373C1173.77 18.2428 1174.27 17.9801 1173.81 18.2461C1162.77 24.5698 1152.6 32.3899 1143.14 41.1645C1142.98 41.319 1143.21 41.0667 1142.82 41.4307C1137.37 46.5305 1134.07 50.0049 1129.88 54.5342C1125.72 59.0695 1122.52 62.7853 1120.13 65.525C1117.11 69.0689 1112.88 74.2234 1110.47 77.2198C1108.06 80.2152 1107.78 80.6692 1107.57 80.9348C1101.06 89.2314 1097.34 94.0579 1090.62 102.682C1087.42 106.79 1081.03 114.888 1077.44 119.227C1074.61 122.671 1072.88 124.703 1070.2 127.818C1069.83 128.239 1070.22 127.833 1070.11 127.961C1067.12 131.437 1068.52 129.73 1067.89 130.434C1065.58 132.964 1064.16 134.544 1060.15 138.817C1059.23 139.801 1056.55 142.7 1054.8 144.434C1052.51 146.685 1053.36 145.821 1050.94 148.14C1050.73 148.336 1050.79 148.317 1049.27 149.727C1042.21 156.263 1034 162.85 1025.59 168.274C1024.44 169.012 1025.94 168.1 1024.27 169.161C1016.44 174.153 1007.36 178.707 998.868 181.867C996.799 182.635 998.086 182.126 997.634 182.285C994.871 183.268 990.808 184.624 990.171 184.807C982.76 187.06 976.013 188.475 969.049 189.486C961.258 190.592 953.654 191.22 944.7 191.2C943.788 191.23 936.727 191.11 933.592 190.747C933.373 190.728 930.313 190.412 927.541 190.127C927.371 190.107 929.296 190.383 925.928 189.965C922.593 189.548 917.156 188.69 912.648 187.661C911.198 187.335 907.81 186.513 903.564 185.409C903.272 185.361 896.725 183.589 894.457 182.706C894.094 182.557 894.492 182.643 889.534 180.943C888.589 180.612 890.289 181.255 887.807 180.363C883.994 178.987 879.032 176.967 874.462 175.001C873.663 174.663 870.263 173.221 867.607 171.908C867.191 171.702 868.002 172.049 866.59 171.377C859.881 168.173 852.956 164.611 846.329 161.006C843.983 159.727 845.211 160.331 842.771 158.983C840.332 157.637 835.432 154.905 832.875 153.507C830.319 152.11 833.054 153.74 829.239 151.619C812.659 142.393 796.262 133.163 778.855 125.706C776.275 124.613 778.41 125.536 774.587 123.96C760.592 117.809 735.032 111.154 721.815 110.104C711.248 109.034 724.528 110.206 716.489 109.47C712.644 109.145 708.297 109.122 707.415 109.109C704.212 109.039 701.307 109.048 698.511 109.111C693.384 109.233 688.843 109.486 683.515 110.032C681.829 110.211 683.502 110.084 682.046 110.243C677.067 110.795 671.897 111.559 667.257 112.449C665.147 112.859 665.543 112.82 663.619 113.215C659.057 114.171 655.003 115.156 650.571 116.355C650.168 116.465 652.868 115.656 649.518 116.597C644.118 118.124 637.449 120.276 631.404 122.58C629.605 123.27 629.57 123.363 625.701 124.817C624.893 125.129 625.864 124.598 621.451 126.504C620.702 126.809 613.308 130.084 609.658 131.645C608.697 132.049 606.215 133.063 604.119 134.038C603.835 134.17 604.998 133.693 603.258 134.495C597.121 137.322 590.716 140.339 584.417 143.27C582.735 144.052 585.265 142.942 582.757 144.104C575.861 147.306 567.169 151.157 560.251 153.904C557.698 154.918 559.445 154.171 559.257 154.242C556.252 155.351 554.507 156.119 553.509 156.501C547.32 158.848 542.488 160.411 536.639 162.144C535.018 162.618 536.183 162.335 535.861 162.433C532.51 163.428 534.987 162.635 532.856 163.212C526.907 164.806 520.14 166.306 513.993 167.32C511.711 167.693 514.289 167.342 512.236 167.669C502 169.28 491.285 169.986 480.989 169.787C479.12 169.753 477.283 169.687 475.481 169.592C473.238 169.467 474.652 169.493 474.186 169.456C470.981 169.211 466.339 168.855 465.213 168.724C460.252 168.175 458.448 167.839 454.132 167.058C432.994 163.471 408.682 152.387 392.048 141.115C370.25 126.564 355.329 112.602 337.291 95.4406C336.148 94.344 337.249 95.5032 336.264 94.5582C323.546 82.3515 311.311 70.0475 298.279 58.1738C297.211 57.2025 298.701 58.6557 296.984 57.1015C293.443 53.8982 288.938 49.9265 285.258 46.8012C283.466 45.2803 285.92 47.2594 284.114 45.732C279.918 42.1915 275.29 38.4992 270.764 35.1549C268.834 33.7346 271.704 35.9441 269.186 34.0927C252.034 21.5492 233.45 11.3942 212.688 5.82623C211.25 5.44561 210.061 4.96141 207.013 4.31801C206.774 4.31125 206.775 4.36506 206.665 4.38969C192.357 1.29916 177.668 0.588206 163.069 1.91217C146.989 3.38893 131.07 7.26009 115.504 12.1407C114.255 12.5358 116.44 11.9353 114.022 12.7048C100.032 17.1977 86.7339 22.3891 72.9099 28.2779C71.5362 28.8683 72.1611 28.4067 68.1578 30.2059C67.4691 30.5069 61.4022 33.2755 59.8945 34.0242C59.6853 34.1273 60.8141 33.6867 58.8804 34.5871C47.605 39.8441 36.053 45.624 25.0559 51.4352C23.2803 52.3744 25.1255 51.2947 23.8647 51.9617C14.9671 56.6685 5.36498 62.1384 -2.94589 66.9556C-8.47348 70.1724 -6.55667 68.8696 -9.5724 70.5174C-10.0268 70.7643 -13.3745 72.8115 -13.6222 72.8713C-13.9279 72.9367 -13.6501 72.6342 -13.4115 72.355C-13.2328 72.1126 -13.0653 71.8756 -13.4335 71.9705C-13.5908 72.0193 -16.3349 73.7573 -16.2918 73.6874C-16.2918 73.6874 -16.2918 73.6874 -16.2918 73.6874C-16.2859 73.6764 -16.3373 73.6999 -16.1758 73.5865C-16.1377 73.5596 -16.0566 73.5054 -15.9985 73.4657C-15.9699 73.4446 -15.9358 73.4199 -15.8943 73.3905C-15.8112 73.3315 -15.6993 73.2539 -15.5377 73.1447C-15.3084 72.9854 -12.0536 70.9288 -11.2412 70.3933C-10.7075 70.0368 -11.7518 70.5716 -10.6307 69.8497C-9.38459 69.0537 -8.23776 68.4444 -6.19755 67.1825C-4.38549 66.0612 -5.14425 66.3877 -1.34309 64.1514ZM1099.73 90.7775C1097.53 93.5703 1097.28 94.0459 1099.63 90.9923C1099.74 90.8444 1099.85 90.6334 1099.73 90.7775ZM1475.84 87.397C1471.21 87.8721 1468.11 87.9932 1471.34 87.8154C1474.56 87.5997 1477.26 87.2373 1475.84 87.397ZM1522.12 74.3457C1517.11 76.4513 1516.32 76.8026 1521.7 74.5453C1522.01 74.4127 1522.41 74.2211 1522.12 74.3457ZM4.12974 62.4018C4.06852 62.4309 1.61507 63.8401 1.57685 63.8682C0.323077 64.6995 5.2119 61.8898 4.12974 62.4018ZM1564.52 52.2206C1563.07 53.0983 1558.87 55.5801 1560.68 54.5124C1562.15 53.6592 1566.33 51.1305 1564.52 52.2206ZM951.929 190.744C951.871 190.747 949.834 190.813 949.876 190.819C950.012 190.857 952.855 190.742 951.929 190.744ZM1630.94 5.32709C1621.56 12.9017 1615.78 17.2697 1626.09 9.21869C1627.04 8.4662 1626.01 9.28356 1625.06 10.0379C1624.16 10.7463 1623.28 11.44 1624.45 10.5183C1628.76 7.11041 1631.66 4.79089 1635.97 1.16742C1636.77 0.516842 1631.45 4.93447 1630.93 5.34117C1630.93 5.33648 1630.94 5.33178 1630.94 5.32709ZM1098.38 92.3225C1098.34 92.3777 1096.58 94.6327 1096.54 94.6876C1095.62 95.9285 1099.15 91.3857 1098.38 92.3225ZM838.463 156.163C838.327 156.086 832.537 152.859 832.35 152.757C829.292 151.144 840.992 157.664 838.463 156.163ZM1256.35 0.767625C1259.46 1.0903 1263.11 1.65709 1265.57 2.14812C1262.5 1.57663 1259.46 1.1214 1256.35 0.767625Z" fill="url(#paint2_linear_628_5212)"/>
</g>
<defs>
<linearGradient id="paint0_linear_628_5212" x1="1636" y1="268.583" x2="-16" y2="268.583" gradientUnits="userSpaceOnUse">
<stop stop-color="#5BD0F1"/>
<stop offset="0.495192" stop-color="#2DADD0"/>
<stop offset="1" stop-color="#1B6AB3"/>
</linearGradient>
<linearGradient id="paint1_linear_628_5212" x1="1636" y1="200.788" x2="-16" y2="200.788" gradientUnits="userSpaceOnUse">
<stop stop-color="#5BD0F1"/>
<stop offset="0.495192" stop-color="#2DADD0"/>
<stop offset="1" stop-color="#1B6AB3"/>
</linearGradient>
<linearGradient id="paint2_linear_628_5212" x1="1636" y1="94.1177" x2="-16" y2="94.1181" gradientUnits="userSpaceOnUse">
<stop stop-color="#1B6AB3"/>
<stop offset="0.495192" stop-color="#2DADD0"/>
<stop offset="1" stop-color="#5BD0F1"/>
</linearGradient>
<clipPath id="clip0_628_5212">
<rect width="1600" height="373" fill="white" transform="matrix(-1 0 0 1 1600 0)"/>
</clipPath>
</defs>
</svg>
