<svg width="1600" height="729" viewBox="0 0 1600 729" fill="none" xmlns="http://www.w3.org/2000/svg">
<g clip-path="url(#clip0_628_4930)">
<path d="M49.5 80.5C13.1154 55.6476 -32.5 3 -32.5 3V37C-32.5 37 4.18515 95.6257 39.5 120C98.865 160.974 183.395 90.2543 221.5 151.5C270.037 229.512 68.6908 239.63 70 331.5C71.3445 425.846 264.5 428.5 235 508C209.863 575.743 125.902 536.739 57 558.5C16.549 571.275 -46 593 -46 593V650C-46 650 22.7473 605.449 70 583C149.763 545.106 221.5 567 285.5 514.5C349.5 462 182.194 402.966 116 331.5C49.8061 260.034 285.841 226.904 251.5 143C220.221 66.5777 117.687 127.075 49.5 80.5Z" fill="url(#paint0_linear_628_4930)"/>
<path d="M211.049 168.808C121.75 79.032 -85 184.008 -85 184.008V263.809C-85 263.809 142.754 136.538 211.049 238.295C244.271 287.794 212.237 338.643 240.054 391.925C275.797 460.39 349.905 446.624 388.078 513.526C436.891 599.076 258.498 545.003 175.043 562.927C73.8402 584.662 -85 613.413 -85 613.413V728.5C-85 728.5 66.2046 619.566 175.043 580.298C277.182 543.448 514.336 625.83 451.589 530.898C388.078 434.811 240.054 447.24 240.054 353.925C240.054 280.095 254.985 212.979 211.049 168.808Z" fill="url(#paint1_linear_628_4930)"/>
<path d="M1259.68 526.413C1416.31 681.894 1634 693 1634 693V647.688C1634 647.688 1373.78 628.586 1298.71 508.2C1274.25 468.974 1379.74 393.916 1345.25 361.16C1295.21 313.628 1203.13 309.331 1203.13 243.883C1203.13 148.754 1366.93 208.507 1463.85 167.919C1533.48 138.759 1634 79.5173 1634 79.5173V0C1634 0 1533.33 90.4798 1456.35 133.269C1350.55 192.07 1203.13 155.565 1168.1 195.906C1121.94 249.059 1263.83 323.045 1315.22 372.266C1353.26 408.693 1222.03 489.041 1259.68 526.413Z" fill="url(#paint2_linear_628_4930)"/>
<path d="M1574.5 296.5C1603.43 277.52 1659.5 228 1659.5 228V321C1659.5 321 1618.67 333.798 1592 340C1508.78 359.349 1394.65 251.551 1385.5 336.5C1378.5 401.5 1401.62 413.931 1385.5 472C1369.38 530.069 1348 545.5 1318 605C1273.57 693.129 1431.5 605 1540 584C1648.5 563 1643 605 1643 605V660C1643 660 1581.39 634.587 1540 625C1430.34 599.599 1268 727.5 1268 660C1268 553.032 1342.06 552.668 1363 481.5C1377.66 431.685 1352.52 390.859 1363 340C1390.5 206.5 1480 358.5 1574.5 296.5Z" fill="url(#paint3_linear_628_4930)"/>
</g>
<defs>
<linearGradient id="paint0_linear_628_4930" x1="299.827" y1="322.068" x2="-46" y2="322.068" gradientUnits="userSpaceOnUse">
<stop stop-color="#5BD0F1"/>
<stop offset="0.495192" stop-color="#2DADD0"/>
<stop offset="1" stop-color="#1B6AB3"/>
</linearGradient>
<linearGradient id="paint1_linear_628_4930" x1="462" y1="426.418" x2="-85" y2="426.418" gradientUnits="userSpaceOnUse">
<stop stop-color="#5BD0F1"/>
<stop offset="0.495192" stop-color="#2DADD0"/>
<stop offset="1" stop-color="#1B6AB3"/>
</linearGradient>
<linearGradient id="paint2_linear_628_4930" x1="1634" y1="351.695" x2="1155.37" y2="351.695" gradientUnits="userSpaceOnUse">
<stop stop-color="#1B6AB3"/>
<stop offset="0.495192" stop-color="#2DADD0"/>
<stop offset="1" stop-color="#5BD0F1"/>
</linearGradient>
<linearGradient id="paint3_linear_628_4930" x1="1659.5" y1="450.858" x2="1268" y2="450.858" gradientUnits="userSpaceOnUse">
<stop stop-color="#1B6AB3"/>
<stop offset="0.495192" stop-color="#2DADD0"/>
<stop offset="1" stop-color="#5BD0F1"/>
</linearGradient>
<clipPath id="clip0_628_4930">
<rect width="1648" height="729" fill="white" transform="translate(-24)"/>
</clipPath>
</defs>
</svg>
